<svg width="30" height="27" viewBox="0 0 30 27" fill="none" xmlns="http://www.w3.org/2000/svg">
<path d="M17.1823 22.4987V6.4987C17.1823 5.79145 16.9013 5.11318 16.4012 4.61308C15.9011 4.11298 15.2229 3.83203 14.5156 3.83203H10.5156" stroke="#F23621" stroke-width="2.33333" stroke-linecap="round" stroke-linejoin="round"/>
<path d="M18.5156 22.5H10.5156" stroke="#F23621" stroke-width="2.33333" stroke-linecap="round" stroke-linejoin="round"/>
<path d="M23.8503 22.4993H26.5169C26.8705 22.4993 27.2097 22.3589 27.4597 22.1088C27.7098 21.8588 27.8503 21.5196 27.8503 21.166V16.2993C27.8485 15.9986 27.7451 15.7073 27.5569 15.4727L22.9169 9.67268C22.7928 9.51554 22.6348 9.3884 22.4547 9.30068C22.2747 9.21297 22.0772 9.16694 21.8769 9.16602H17.1836" stroke="#F23621" stroke-width="2.33333" stroke-linecap="round" stroke-linejoin="round"/>
<path d="M1.18359 14.5V21.1667C1.18359 21.5203 1.32407 21.8594 1.57412 22.1095C1.82417 22.3595 2.16331 22.5 2.51693 22.5H5.18359" stroke="#F23621" stroke-width="2.33333" stroke-linecap="round" stroke-linejoin="round"/>
<path d="M3.84919 1.16602L1.38252 4.03268C1.28302 4.1237 1.21378 4.243 1.18412 4.37455C1.15447 4.5061 1.16582 4.64358 1.21666 4.76848C1.26749 4.89338 1.35536 4.99972 1.46845 5.07317C1.58153 5.14663 1.71441 5.18368 1.84919 5.17935H4.71586C4.86119 5.14534 5.01389 5.16432 5.14647 5.23287C5.27906 5.30143 5.38282 5.41506 5.43909 5.55331C5.49535 5.69155 5.50042 5.84535 5.45339 5.987C5.40635 6.12866 5.3103 6.24887 5.18252 6.32602L2.51586 9.19268" stroke="#F23621" stroke-width="2.33333" stroke-linecap="round" stroke-linejoin="round"/>
<path d="M21.1823 25.1654C22.6551 25.1654 23.849 23.9715 23.849 22.4987C23.849 21.0259 22.6551 19.832 21.1823 19.832C19.7095 19.832 18.5156 21.0259 18.5156 22.4987C18.5156 23.9715 19.7095 25.1654 21.1823 25.1654Z" stroke="#F23621" stroke-width="2.33333" stroke-linecap="round" stroke-linejoin="round"/>
<path d="M7.85026 25.1654C9.32302 25.1654 10.5169 23.9715 10.5169 22.4987C10.5169 21.0259 9.32302 19.832 7.85026 19.832C6.3775 19.832 5.18359 21.0259 5.18359 22.4987C5.18359 23.9715 6.3775 25.1654 7.85026 25.1654Z" stroke="#F23621" stroke-width="2.33333" stroke-linecap="round" stroke-linejoin="round"/>
</svg>
