<svg width="32" height="32" viewBox="0 0 32 32" fill="none" xmlns="http://www.w3.org/2000/svg">
<path d="M20.7985 3.60027C17.9467 2.49238 14.8007 2.39889 11.8882 3.3355C8.9757 4.2721 6.47389 6.18181 4.80246 8.74427C3.13103 11.3067 2.39166 14.366 2.70838 17.409C3.02511 20.4519 4.37867 23.2934 6.54198 25.4567C8.7053 27.6201 11.5468 28.9736 14.5897 29.2903C17.6327 29.6071 20.692 28.8677 23.2544 27.1963C25.8169 25.5248 27.7266 23.023 28.6632 20.1105C29.5998 17.198 29.5063 14.052 28.3985 11.2003" stroke="#F23621" stroke-width="2.33333" stroke-linecap="round" stroke-linejoin="round"/>
<path d="M15.9987 18.6673C17.4715 18.6673 18.6654 17.4734 18.6654 16.0007C18.6654 14.5279 17.4715 13.334 15.9987 13.334C14.5259 13.334 13.332 14.5279 13.332 16.0007C13.332 17.4734 14.5259 18.6673 15.9987 18.6673Z" stroke="#F23621" stroke-width="2.33333" stroke-linecap="round" stroke-linejoin="round"/>
<path d="M17.8672 14.1327L25.3339 6.66602" stroke="#F23621" stroke-width="2.33333" stroke-linecap="round" stroke-linejoin="round"/>
</svg>
