<svg width="27" height="29" viewBox="0 0 27 29" fill="none" xmlns="http://www.w3.org/2000/svg">
<path d="M2.50585 17.1695C2.25354 17.1703 2.00616 17.0996 1.79245 16.9655C1.57875 16.8313 1.40749 16.6393 1.29858 16.4117C1.18967 16.1841 1.14757 15.9303 1.17718 15.6797C1.20679 15.4291 1.30689 15.1921 1.46585 14.9962L14.6658 1.39615C14.7649 1.28186 14.8998 1.20463 15.0485 1.17713C15.1972 1.14963 15.3508 1.1735 15.4842 1.24483C15.6175 1.31615 15.7226 1.43068 15.7823 1.56963C15.842 1.70858 15.8526 1.86369 15.8125 2.00949L13.2525 10.0362C13.177 10.2382 13.1517 10.4555 13.1786 10.6695C13.2056 10.8835 13.2841 11.0877 13.4073 11.2647C13.5305 11.4417 13.6949 11.5862 13.8862 11.6857C14.0776 11.7852 14.2902 11.8369 14.5058 11.8362H23.8392C24.0915 11.8353 24.3389 11.906 24.5526 12.0402C24.7663 12.1743 24.9375 12.3663 25.0465 12.5939C25.1554 12.8215 25.1975 13.0754 25.1678 13.3259C25.1382 13.5765 25.0381 13.8135 24.8792 14.0095L11.6792 27.6095C11.5802 27.7238 11.4452 27.801 11.2965 27.8285C11.1478 27.856 10.9942 27.8321 10.8609 27.7608C10.7275 27.6895 10.6224 27.575 10.5627 27.436C10.5031 27.2971 10.4924 27.142 10.5325 26.9962L13.0925 18.9695C13.168 18.7675 13.1934 18.5501 13.1664 18.3361C13.1394 18.1222 13.061 17.9179 12.9377 17.7409C12.8145 17.5639 12.6502 17.4195 12.4588 17.3199C12.2675 17.2204 12.0549 17.1688 11.8392 17.1695H2.50585Z" stroke="#F23621" stroke-width="2.33333" stroke-linecap="round" stroke-linejoin="round"/>
</svg>
