<svg width="20" height="20" viewBox="0 0 20 20" fill="none" xmlns="http://www.w3.org/2000/svg">
<path d="M1.43443 18.5656C1.49248 18.6237 1.56141 18.6698 1.63728 18.7013C1.71315 18.7327 1.79448 18.7489 1.87662 18.7489C1.95875 18.7489 2.04008 18.7327 2.11596 18.7013C2.19183 18.6698 2.26076 18.6237 2.31881 18.5656L10.0001 10.8844L17.6844 18.5656C17.8017 18.6829 17.9608 18.7488 18.1266 18.7488C18.2925 18.7488 18.4515 18.6829 18.5688 18.5656C18.6861 18.4483 18.752 18.2893 18.752 18.1234C18.752 17.9576 18.6861 17.7985 18.5688 17.6812L10.8844 10L18.5657 2.31562C18.683 2.19835 18.7488 2.03929 18.7488 1.87344C18.7488 1.70758 18.683 1.54852 18.5657 1.43125C18.4484 1.31397 18.2893 1.24809 18.1235 1.24809C17.9576 1.24809 17.7986 1.31397 17.6813 1.43125L10.0001 9.11562L2.31568 1.43437C2.19612 1.33198 2.04232 1.27848 1.88502 1.28455C1.72773 1.29063 1.57851 1.35584 1.4672 1.46715C1.35589 1.57846 1.29069 1.72767 1.28461 1.88497C1.27854 2.04226 1.33204 2.19606 1.43443 2.31562L9.11568 10L1.43443 17.6844C1.31802 17.8015 1.25269 17.9599 1.25269 18.125C1.25269 18.2901 1.31802 18.4485 1.43443 18.5656Z" fill="white"/>
</svg>
