<svg width="107" height="29" viewBox="0 0 107 29" fill="none" xmlns="http://www.w3.org/2000/svg">
<rect width="107" height="29" rx="4" fill="#F23621"/>
<path d="M17.1797 10.75L17.5781 8.35938H27.2422L26.8438 10.75H23.4141L21.8906 20H19.0781L20.6094 10.75H17.1797ZM27.0781 20V8.35938H31.875C32.776 8.35938 33.5547 8.52083 34.2109 8.84375C34.8672 9.16146 35.3724 9.61458 35.7266 10.2031C36.0859 10.7917 36.2656 11.4896 36.2656 12.2969C36.2656 13.0417 36.0964 13.6927 35.7578 14.25C35.4193 14.8073 34.9453 15.2448 34.3359 15.5625L36.5703 20H33.6016L31.7031 16.1328H29.8906V20H27.0781ZM29.8906 13.9219H31.6875C32.25 13.9219 32.6953 13.7734 33.0234 13.4766C33.3516 13.1797 33.5156 12.7865 33.5156 12.2969C33.5156 11.8021 33.3516 11.4062 33.0234 11.1094C32.6953 10.8125 32.2474 10.6641 31.6797 10.6641H29.8906V13.9219ZM36.8984 20L40.8984 8.35938H44.6016L48.625 20H45.4844L44.7969 17.7578H40.6641L39.9531 20H36.8984ZM41.3672 15.5625H44.1172L43.9062 14.8828C43.7135 14.2318 43.5208 13.5807 43.3281 12.9297C43.1406 12.2786 42.9505 11.5964 42.7578 10.8828C42.5599 11.5964 42.3646 12.2786 42.1719 12.9297C41.9792 13.5807 41.7812 14.2318 41.5781 14.8828L41.3672 15.5625ZM49.4219 20V8.35938H52.3281L55.6328 13.6484C55.7734 13.8672 55.9557 14.1771 56.1797 14.5781C56.4036 14.974 56.6276 15.3802 56.8516 15.7969C56.8411 15.3385 56.8307 14.8906 56.8203 14.4531C56.8151 14.0156 56.8125 13.6667 56.8125 13.4062V8.35938H59.625V20H56.7109L53.6797 15.1562C53.5078 14.8854 53.2917 14.5234 53.0312 14.0703C52.7708 13.6172 52.4896 13.1172 52.1875 12.5703C52.2083 13.138 52.2214 13.6484 52.2266 14.1016C52.2318 14.5547 52.2344 14.9036 52.2344 15.1484V20H49.4219ZM65.7578 20.1875C64.2057 20.1875 63.0078 19.8385 62.1641 19.1406C61.3203 18.4375 60.8984 17.4427 60.8984 16.1562H63.5781C63.599 16.7135 63.8021 17.1484 64.1875 17.4609C64.5781 17.7734 65.1094 17.9297 65.7812 17.9297C66.375 17.9297 66.8516 17.8151 67.2109 17.5859C67.5755 17.3516 67.7578 17.0443 67.7578 16.6641C67.7578 16.3359 67.599 16.0677 67.2812 15.8594C66.9688 15.651 66.4609 15.474 65.7578 15.3281L64.5625 15.0859C62.2708 14.6172 61.125 13.5208 61.125 11.7969C61.125 11.0781 61.3151 10.4479 61.6953 9.90625C62.0807 9.35938 62.6172 8.9349 63.3047 8.63281C63.9922 8.32552 64.7917 8.17188 65.7031 8.17188C67.099 8.17188 68.2005 8.51042 69.0078 9.1875C69.8151 9.85938 70.237 10.7917 70.2734 11.9844H67.6719C67.6302 11.5052 67.4375 11.1276 67.0938 10.8516C66.75 10.5703 66.2995 10.4297 65.7422 10.4297C65.2109 10.4297 64.776 10.5443 64.4375 10.7734C64.1042 11.0026 63.9375 11.2995 63.9375 11.6641C63.9375 11.9818 64.0833 12.237 64.375 12.4297C64.6719 12.6224 65.1536 12.7865 65.8203 12.9219L66.8438 13.125C68.1354 13.3802 69.0729 13.776 69.6562 14.3125C70.2448 14.8438 70.5391 15.5599 70.5391 16.4609C70.5391 17.6328 70.1172 18.5469 69.2734 19.2031C68.4297 19.8594 67.2578 20.1875 65.7578 20.1875ZM74.625 8.35938V20H71.8125V8.35938H74.625ZM81.3516 20.1875C80.2995 20.1875 79.3516 19.9505 78.5078 19.4766C77.6693 18.9974 77.0052 18.3099 76.5156 17.4141C76.026 16.5182 75.7812 15.4427 75.7812 14.1875C75.7812 12.9219 76.026 11.8411 76.5156 10.9453C77.0052 10.0443 77.6693 9.35677 78.5078 8.88281C79.3516 8.40885 80.2995 8.17188 81.3516 8.17188C82.3984 8.17188 83.3411 8.40885 84.1797 8.88281C85.0234 9.35677 85.6901 10.0443 86.1797 10.9453C86.6693 11.8411 86.9141 12.9219 86.9141 14.1875C86.9141 15.2188 86.7448 16.1302 86.4062 16.9219C86.0729 17.7135 85.6146 18.3646 85.0312 18.875L86.7188 20.9141H84.2656L83.3984 19.8359C82.763 20.0703 82.0807 20.1875 81.3516 20.1875ZM80.2812 15.8516H82.5156L83.3047 16.8516C83.5547 16.5495 83.7474 16.1745 83.8828 15.7266C84.0182 15.2786 84.0859 14.7656 84.0859 14.1875C84.0859 13.0573 83.8385 12.1823 83.3438 11.5625C82.849 10.9375 82.1849 10.625 81.3516 10.625C80.5182 10.625 79.8516 10.9375 79.3516 11.5625C78.8568 12.1823 78.6094 13.0573 78.6094 14.1875C78.6094 15.3125 78.8568 16.1849 79.3516 16.8047C79.8516 17.4245 80.5182 17.7344 81.3516 17.7344C81.4714 17.7344 81.5859 17.7292 81.6953 17.7188L80.2812 15.8516ZM88.6641 20.1484C88.2578 20.1484 87.9115 20.0052 87.625 19.7188C87.3385 19.4323 87.1953 19.0833 87.1953 18.6719C87.1953 18.2656 87.3385 17.9193 87.625 17.6328C87.9115 17.3464 88.2578 17.2031 88.6641 17.2031C89.0703 17.2031 89.4167 17.3464 89.7031 17.6328C89.9896 17.9193 90.1328 18.2656 90.1328 18.6719C90.1328 19.0833 89.9896 19.4323 89.7031 19.7188C89.4167 20.0052 89.0703 20.1484 88.6641 20.1484Z" fill="white"/>
</svg>
