<svg width="67" height="26" viewBox="0 0 67 26" fill="none" xmlns="http://www.w3.org/2000/svg">
<path fill-rule="evenodd" clip-rule="evenodd" d="M3.82045 4.31H18.6126L23.5189 12.8079L18.6126 21.3059H6.21663L3.73246 25.6159H21.0968L28.4924 12.8069L21.0968 0H6.30876L3.82045 4.31ZM5.58007 18.0962H17.7453L15.2611 13.7871H8.07045L9.80937 10.774H19.8496L17.3654 6.46505H7.3252L0 19.1519L2.48417 23.4619L5.58007 18.0962Z" fill="white"/>
<path d="M33.7726 16.4313V8.34204H38.4829V16.4313H33.7726ZM37.1371 14.9065H38.3255V14.0904H37.7671L37.1371 12.9307C37.4044 12.8257 37.6191 12.6682 37.7814 12.4582C37.9437 12.2435 38.0248 11.9786 38.0248 11.6636C38.0248 11.1959 37.8697 10.8452 37.5595 10.6113C37.2493 10.3727 36.8054 10.2534 36.228 10.2534H34.1233V11.0695H34.6244V14.0904H34.1233V14.9065H36.0848V14.0904H35.5837V13.1312H36.2137L37.1371 14.9065ZM36.9939 11.6851C36.9939 11.9046 36.9271 12.0741 36.7935 12.1934C36.6599 12.3127 36.4093 12.3723 36.0419 12.3723H35.5837V11.0695H36.0562C36.4046 11.0695 36.6479 11.1148 36.7863 11.2055C36.9247 11.2914 36.9939 11.4513 36.9939 11.6851ZM38.3376 16.4313V8.34204H43.5777V16.4313H38.3376ZM43.3343 12.5728C43.3343 11.919 43.1243 11.3582 42.7043 10.8905C42.2891 10.418 41.7093 10.1818 40.9648 10.1818C40.2346 10.1818 39.6548 10.4133 39.2253 10.8762C38.7957 11.3391 38.581 11.9094 38.581 12.5871C38.581 13.2361 38.7838 13.7969 39.1895 14.2694C39.5951 14.7418 40.1774 14.9781 40.9362 14.9781C41.6902 14.9781 42.2772 14.7418 42.6972 14.2694C43.1219 13.7969 43.3343 13.2314 43.3343 12.5728ZM42.2963 12.6014C42.2963 13.0548 42.1913 13.4247 41.9813 13.711C41.7713 13.9926 41.4397 14.1334 40.9863 14.1334C40.4947 14.1334 40.1439 13.9783 39.934 13.6681C39.724 13.3578 39.619 12.9904 39.619 12.5656C39.619 12.1266 39.7264 11.7615 39.9411 11.4704C40.1559 11.1745 40.4947 11.0265 40.9576 11.0265C41.3919 11.0265 41.7236 11.1649 41.9527 11.4417C42.1818 11.7185 42.2963 12.1051 42.2963 12.6014ZM43.4339 16.4313V8.34204H48.674V16.4313H43.4339ZM48.4306 12.5728C48.4306 11.919 48.2206 11.3582 47.8007 10.8905C47.3855 10.418 46.8056 10.1818 46.0611 10.1818C45.3309 10.1818 44.7511 10.4133 44.3216 10.8762C43.8921 11.3391 43.6773 11.9094 43.6773 12.5871C43.6773 13.2361 43.8801 13.7969 44.2858 14.2694C44.6914 14.7418 45.2737 14.9781 46.0325 14.9781C46.7865 14.9781 47.3735 14.7418 47.7935 14.2694C48.2183 13.7969 48.4306 13.2314 48.4306 12.5728ZM47.3926 12.6014C47.3926 13.0548 47.2876 13.4247 47.0777 13.711C46.8677 13.9926 46.536 14.1334 46.0826 14.1334C45.591 14.1334 45.2403 13.9783 45.0303 13.6681C44.8203 13.3578 44.7153 12.9904 44.7153 12.5656C44.7153 12.1266 44.8227 11.7615 45.0374 11.4704C45.2522 11.1745 45.591 11.0265 46.054 11.0265C46.4883 11.0265 46.8199 11.1649 47.049 11.4417C47.2781 11.7185 47.3926 12.1051 47.3926 12.6014ZM48.5302 16.4313V8.34204H53.3408V16.4313H48.5302ZM52.2885 11.8999L53.1046 11.8283L52.9614 10.2534H48.8953L48.7522 11.8283L49.5682 11.8999L49.7114 11.0695H50.4487V14.0904H49.7329V14.9065H52.1668V14.0904H51.408V11.0695H52.1453L52.2885 11.8999ZM53.1643 16.4313V8.34204H54.6533V16.4313H53.1643ZM54.4725 16.4313V8.34204H58.9036V16.4313H54.4725ZM58.7247 11.771C58.7247 11.3033 58.5743 10.9335 58.2737 10.6614C57.973 10.3894 57.534 10.2534 56.9565 10.2534H54.8232V11.0695H55.3243V14.0904H54.8232V14.9065H56.9994V14.0904H56.2836V13.3459H56.9994C57.4576 13.3459 57.8585 13.2171 58.2021 12.9593C58.5505 12.6969 58.7247 12.3008 58.7247 11.771ZM57.6938 11.7853C57.6938 12.0096 57.6294 12.191 57.5005 12.3294C57.3765 12.4678 57.1498 12.537 56.8205 12.537H56.2836V11.0695H56.8348C57.1545 11.0695 57.3765 11.1315 57.5005 11.2556C57.6294 11.3797 57.6938 11.5563 57.6938 11.7853ZM58.7578 8.34204H63.5827V14.0904H63.1389L61.4638 10.2534H59.8674V11.0695H60.5117L59.1802 14.0904H58.7578V8.34204ZM61.1846 11.6207L61.6714 12.9307H60.6191L61.1417 11.6207H61.1846ZM63.5827 16.4313H58.7578V14.9065H60.5904V14.0904H60.1538L60.3471 13.6179H61.9291L62.1009 14.0904H61.7287V14.9065H63.5827V16.4313ZM63.4417 16.4313V8.34204H66.1119V16.4313H63.4417ZM63.7925 14.9065H65.7539V14.0904H65.2528V11.0695H65.7539V10.2534H63.7925V11.0695H64.2936V14.0904H63.7925V14.9065Z" fill="white"/>
</svg>
