<svg width="63" height="26" viewBox="0 0 63 26" fill="none" xmlns="http://www.w3.org/2000/svg">
<path fill-rule="evenodd" clip-rule="evenodd" d="M16.3035 15.9118L6.44303 25.7733L16.3035 20.8425L26.165 25.7733L16.3035 15.9118ZM16.3035 0L0 25.7733L16.3035 9.46758L32.6058 25.7733L16.3035 0Z" fill="white"/>
<path d="M45.2594 6.70471C45.0487 7.24234 44.838 7.73638 44.6273 8.18684C44.4239 8.63002 44.3222 8.87341 44.3222 8.917C44.3222 8.95333 44.3331 8.97149 44.3549 8.97149C44.413 8.97149 44.4748 8.93516 44.5401 8.86251C44.6055 8.78259 44.9942 8.35394 45.7062 7.57655C47.37 5.76021 48.4925 4.74307 49.0737 4.52511C49.2626 4.44519 49.4116 4.40523 49.5205 4.40523C49.6295 4.40523 49.7385 4.44519 49.8475 4.52511C49.9637 4.59776 50.0218 4.67041 50.0218 4.74307C50.0218 4.80846 49.9891 4.87021 49.9238 4.92833L49.7385 5.07001C48.5615 5.97817 47.3773 7.07161 46.1857 8.35031C45.9896 8.56827 45.7244 8.85888 45.3902 9.22214C45.0632 9.58541 44.7981 9.87966 44.5946 10.1049C44.3912 10.3301 44.1478 10.5917 43.8645 10.8895C43.5811 11.1874 43.3414 11.4272 43.1452 11.6088C42.9563 11.7832 42.7565 11.9575 42.5458 12.1319C42.1535 12.4661 41.8338 12.6332 41.5868 12.6332C41.347 12.6332 41.1 12.4625 40.8457 12.121C40.5914 11.7723 40.4643 11.4889 40.4643 11.271C40.4643 11.053 40.675 10.4972 41.0964 9.60358C41.5178 8.70267 41.921 8.06332 42.3061 7.68553C42.4005 7.59108 42.4477 7.51842 42.4477 7.46757C42.4477 7.40944 42.415 7.38038 42.3496 7.38038C42.2915 7.38038 42.2334 7.41671 42.1753 7.48936C42.1172 7.55475 41.9537 7.74365 41.6849 8.05606C41.4233 8.3612 41.1945 8.62639 40.9983 8.85161C40.8021 9.06957 40.5442 9.35655 40.2245 9.71256C39.9121 10.0613 39.6251 10.3592 39.3636 10.6062C39.1093 10.8532 38.8441 11.1002 38.568 11.3473C38.0013 11.8558 37.5654 12.1101 37.2603 12.1101C37.006 12.0956 36.8789 11.914 36.8789 11.5652C36.8789 11.2165 37.0205 10.7188 37.3039 10.0722C37.5872 9.42557 37.8488 9.10227 38.0885 9.10227C38.2484 9.10227 38.3283 9.17129 38.3283 9.30933C38.3283 9.41831 38.2229 9.68349 38.0122 10.1049C37.7943 10.5263 37.6853 10.766 37.6853 10.8242C37.6853 10.875 37.6998 10.9004 37.7289 10.9004C37.7943 10.9004 38.0449 10.7006 38.4809 10.301C38.9168 9.89419 39.3345 9.48733 39.7341 9.08047L40.3444 8.48108C40.8821 7.97977 41.7321 7.08614 42.8945 5.80017C43.2433 5.41511 43.5993 5.07364 43.9626 4.77576C44.3258 4.47788 44.6201 4.32894 44.8453 4.32894C45.0705 4.32894 45.2485 4.47425 45.3793 4.76486C45.5101 5.05548 45.5755 5.31703 45.5755 5.54952C45.5755 5.78201 45.4701 6.16707 45.2594 6.70471ZM44.3649 12.6223C44.2559 12.5206 44.2015 12.3898 44.2015 12.23C44.2015 11.7214 44.503 11.1438 45.106 10.4972C45.7163 9.8506 46.283 9.48006 46.8061 9.38562C47.133 9.38562 47.2965 9.57815 47.2965 9.96321C47.2965 10.0867 47.133 10.3773 46.8061 10.835C46.4791 11.2928 46.105 11.7323 45.6836 12.1537C45.2622 12.5751 44.9643 12.7858 44.7899 12.7858C44.6156 12.7858 44.4739 12.7313 44.3649 12.6223ZM47.4927 9.03688C47.8414 9.00055 48.1284 8.85161 48.3536 8.59006C48.5788 8.32124 48.6914 8.09239 48.6914 7.90349C48.6914 7.60561 48.5425 7.45667 48.2446 7.45667C48.0412 7.45667 47.8014 7.54749 47.5253 7.72912C47.2493 7.91075 47.0931 8.17594 47.0567 8.52467L47.0676 8.64455C47.0822 8.73174 47.1258 8.81892 47.1984 8.9061C47.2711 8.99329 47.3691 9.03688 47.4927 9.03688ZM47.5094 8.11055C47.5094 7.9943 47.8218 7.88896 48.4467 7.79451C49.0715 7.70006 49.7399 7.63467 50.4519 7.59834C51.0476 7.06071 51.5853 6.60299 52.0648 6.2252L52.3045 6.02903C52.4135 6.02903 52.468 6.10895 52.468 6.26879L52.4898 6.80279C52.468 6.88271 52.3154 7.13336 52.0321 7.55475H52.5661C53.3725 7.55475 53.8375 7.63467 53.961 7.79451C54.0918 7.94708 54.1572 8.07059 54.1572 8.16504C54.1572 8.28855 54.0337 8.35394 53.7867 8.3612C53.5396 8.36847 52.7659 8.3721 51.4654 8.3721C50.4265 9.44011 49.6127 10.3882 49.0242 11.2165C48.799 11.5216 48.6029 11.7941 48.4358 12.0338C48.2687 12.2736 48.1379 12.4407 48.0434 12.5351C47.9562 12.6369 47.8727 12.6877 47.7928 12.6877C47.553 12.6877 47.3496 12.6078 47.1825 12.448C47.0154 12.2881 46.9318 12.092 46.9318 11.8595C46.9318 11.2201 47.8218 10.0613 49.6018 8.383H47.9235C47.6475 8.383 47.5094 8.29218 47.5094 8.11055ZM54.1313 10.7806C54.1241 10.8532 53.8879 11.0457 53.4229 11.3582C52.958 11.6633 52.4203 11.9612 51.81 12.2518C51.1998 12.5424 50.7602 12.6877 50.4914 12.6877C50.2298 12.6877 50.0046 12.6078 49.8157 12.448C49.6268 12.2808 49.5324 12.092 49.5324 11.8813C49.5324 11.4453 49.7249 10.9985 50.11 10.5408C50.5023 10.0758 50.9527 9.70166 51.4613 9.41831C51.9771 9.1277 52.4131 8.98239 52.7691 8.98239C53.1323 8.98239 53.4048 9.02961 53.5864 9.12406C53.7681 9.21125 53.8589 9.37835 53.8589 9.62537C53.8589 9.87239 53.699 10.1594 53.3794 10.4863C53.0669 10.806 52.7981 10.9658 52.5729 10.9658C52.4276 10.9658 52.3549 10.9222 52.3549 10.835C52.3549 10.7769 52.3913 10.7261 52.4639 10.6825C52.5438 10.6389 52.671 10.5372 52.8454 10.3773C53.0197 10.2175 53.1069 10.1085 53.1069 10.0504C53.1069 10.0286 53.0851 10.0177 53.0415 10.0177C52.7872 10.0177 52.4276 10.2502 51.9626 10.7152C51.4976 11.1802 51.2651 11.5289 51.2651 11.7614C51.2651 11.8776 51.3269 11.9357 51.4504 11.9357C51.5812 11.9357 51.7882 11.8631 52.0716 11.7178C52.3549 11.5652 52.7037 11.3618 53.1178 11.1075C53.5319 10.8532 53.7681 10.7115 53.8262 10.6825C53.8916 10.6462 53.9424 10.628 53.9787 10.628C54.0805 10.628 54.1313 10.6788 54.1313 10.7806ZM58.6112 11.9902C58.357 12.1864 58.0482 12.3753 57.6849 12.5569C57.3289 12.7386 57.0274 12.8294 56.7804 12.8294C56.5406 12.8294 56.3481 12.7567 56.2028 12.6114C56.0575 12.4661 55.9848 12.2881 55.9848 12.0774C55.9848 11.7287 56.2355 11.2601 56.7368 10.6716C56.7804 10.628 56.8022 10.5953 56.8022 10.5735C56.8022 10.5444 56.7949 10.5299 56.7804 10.5299C56.7659 10.5299 56.7114 10.5481 56.6169 10.5844C56.5297 10.6135 56.2827 10.7806 55.8758 11.0857C55.469 11.3836 55.073 11.7033 54.688 12.0447C54.3029 12.3789 54.0268 12.546 53.8597 12.546C53.6999 12.546 53.58 12.477 53.5001 12.339C53.4274 12.2009 53.3911 12.0447 53.3911 11.8704C53.3911 11.3327 53.8089 10.5154 54.6444 9.41831C55.4872 8.32124 56.3663 7.34406 57.2817 6.48675C58.1971 5.62217 58.782 5.18989 59.0363 5.18989C59.1598 5.18989 59.276 5.24438 59.385 5.35336C59.5013 5.45507 59.5594 5.59674 59.5594 5.77838C59.5594 5.95275 59.3414 6.34507 58.9055 6.95536C58.4696 7.56565 57.9828 8.20863 57.4452 8.88431C56.7695 9.72709 56.4316 10.1848 56.4316 10.2575C56.4316 10.2865 56.4462 10.301 56.4752 10.301C56.5043 10.301 56.6278 10.2429 56.8458 10.1267C57.0637 10.0032 57.2999 9.89056 57.5541 9.78884C57.8084 9.67986 57.9828 9.61811 58.0772 9.60358C58.179 9.58178 58.2952 9.57088 58.426 9.57088C58.564 9.57088 58.6984 9.59994 58.8292 9.65807C58.9672 9.71619 59.0363 9.80337 59.0363 9.91962C59.0363 10.0286 58.7711 10.3882 58.2407 10.9985C57.7176 11.6015 57.4561 11.9466 57.4561 12.0338C57.4561 12.1137 57.4924 12.1537 57.565 12.1537C57.7176 12.1537 58.0155 11.9939 58.4587 11.6742C58.6258 11.5579 58.7239 11.4926 58.7529 11.478C58.782 11.4635 58.8147 11.4562 58.851 11.4562C58.9527 11.4562 59.0036 11.5071 59.0036 11.6088C59.0036 11.6669 58.8728 11.7941 58.6112 11.9902ZM44.8889 15.9828C45.3975 15.9828 45.7825 16.0518 46.0441 16.1899C46.3129 16.3279 46.4473 16.5423 46.4473 16.8329C46.4473 17.1235 46.2657 17.4468 45.9024 17.8028C45.5464 18.1588 45.2921 18.3368 45.1395 18.3368C44.987 18.3368 44.9107 18.2896 44.9107 18.1951C44.9107 18.0789 45.0051 17.9299 45.194 17.7483C45.3902 17.5594 45.4883 17.4432 45.4883 17.3996C45.4883 17.3778 45.4701 17.3669 45.4338 17.3669C45.0487 17.3669 44.4675 17.6756 43.6901 18.2932C42.92 18.9108 42.2189 19.6082 41.5868 20.3856C40.962 21.1557 40.6496 21.7406 40.6496 22.1402C40.6496 22.2637 40.6932 22.3255 40.7803 22.3255C40.9838 22.3255 41.5214 21.9259 42.3932 21.1267C43.2651 20.3275 44.0861 19.5247 44.8562 18.7182C44.9288 18.7037 44.9906 18.6964 45.0415 18.6964C45.0923 18.6964 45.1504 18.7182 45.2158 18.7618C45.2812 18.7981 45.3284 18.8381 45.3575 18.8817C45.3866 18.9253 45.3975 18.9798 45.3902 19.0452C45.3829 19.1033 45.3357 19.2341 45.2485 19.4375C45.1613 19.6409 45.0596 19.8516 44.9434 20.0696C44.8344 20.2803 44.6963 20.5237 44.5292 20.7997C44.3694 21.0758 44.2314 21.3047 44.1151 21.4863C44.0061 21.6607 43.8826 21.8532 43.7446 22.0639C43.5993 22.3037 43.5266 22.4453 43.5266 22.4889C43.5266 22.5253 43.5375 22.5434 43.5593 22.5434C43.5884 22.5434 43.6102 22.5398 43.6247 22.5325C43.6392 22.5253 43.6792 22.4998 43.7446 22.4562C43.81 22.4054 43.8863 22.3509 43.9734 22.2928C44.0606 22.2346 44.126 22.1874 44.1696 22.1511C44.2132 22.1148 44.2604 22.0966 44.3113 22.0966C44.3694 22.0966 44.4203 22.1148 44.4639 22.1511C44.5075 22.1874 44.5292 22.231 44.5292 22.2819C44.5292 22.5144 44.2604 22.7977 43.7228 23.1319C43.1852 23.4589 42.811 23.6223 42.6003 23.6223C42.3969 23.6223 42.2298 23.5678 42.099 23.4589C41.9755 23.3499 41.9137 23.2191 41.9137 23.0665C41.9137 22.9067 41.9573 22.7105 42.0445 22.478L42.1753 22.1402C42.1753 22.1184 42.168 22.1075 42.1535 22.1075C42.139 22.1075 42.1135 22.1184 42.0772 22.1402C40.9365 23.0484 40.0865 23.5024 39.5271 23.5024C39.0984 23.5024 38.7569 23.3353 38.5027 23.0011C38.2556 22.6669 38.1321 22.2383 38.1321 21.7152C38.1321 21.1921 38.2774 20.6363 38.568 20.0478C38.8587 19.4593 39.2437 18.9289 39.7232 18.4567C40.21 17.9772 40.7476 17.5485 41.3361 17.1707C41.9246 16.7929 42.5385 16.5023 43.1779 16.2989C43.8172 16.0882 44.3876 15.9828 44.8889 15.9828ZM46.8785 19.4375C46.9294 19.4375 46.9766 19.4629 47.0202 19.5138C47.0638 19.5574 47.0856 19.6119 47.0856 19.6772C47.0856 19.7354 47.0493 19.8117 46.9766 19.9061C46.6933 20.2548 46.5044 20.4764 46.4099 20.5709C46.3227 20.6581 46.2791 20.7162 46.2791 20.7453C46.2791 20.7743 46.3009 20.7888 46.3445 20.7888C46.3954 20.7888 46.5916 20.7271 46.933 20.6036C47.2745 20.4728 47.4997 20.4074 47.6087 20.4074C47.7177 20.4074 47.8303 20.4546 47.9465 20.5491C48.0628 20.6363 48.1209 20.7525 48.1209 20.8978C48.1209 21.0359 47.8993 21.3592 47.4561 21.8677C47.0129 22.3691 46.7913 22.696 46.7913 22.8486C46.7913 22.8776 46.8022 22.8922 46.824 22.8922C46.8604 22.8922 46.9258 22.8704 47.0202 22.8268C47.1147 22.7759 47.1728 22.7505 47.1946 22.7505C47.2745 22.7505 47.3145 22.7795 47.3145 22.8377C47.3145 23.0629 47.1365 23.2881 46.7804 23.5133C46.4244 23.7386 46.1229 23.8512 45.8759 23.8512C45.6362 23.8512 45.44 23.7822 45.2874 23.6441C45.1349 23.5133 45.0586 23.3353 45.0586 23.1101C45.0586 22.8849 45.1675 22.6342 45.3855 22.3582C45.6107 22.0748 45.8396 21.875 46.0721 21.7588C46.3118 21.6425 46.4317 21.5481 46.4317 21.4754C46.4317 21.4536 46.4281 21.4391 46.4208 21.4318C46.1011 21.5626 45.8396 21.628 45.6362 21.628C45.2366 21.628 45.0368 21.5117 45.0368 21.2793C45.0368 21.0104 45.2693 20.6581 45.7342 20.2221C46.1992 19.7862 46.5807 19.5247 46.8785 19.4375ZM50.0926 19.4375C50.1434 19.4375 50.1907 19.4629 50.2343 19.5138C50.2779 19.5574 50.2997 19.6119 50.2997 19.6772C50.2997 19.7354 50.2633 19.8117 50.1907 19.9061C49.9073 20.2548 49.7184 20.4764 49.624 20.5709C49.5368 20.6581 49.4932 20.7162 49.4932 20.7453C49.4932 20.7743 49.515 20.7888 49.5586 20.7888C49.6094 20.7888 49.8056 20.7271 50.1471 20.6036C50.4885 20.4728 50.7138 20.4074 50.8228 20.4074C50.9317 20.4074 51.0443 20.4546 51.1606 20.5491C51.2768 20.6363 51.335 20.7525 51.335 20.8978C51.335 21.0359 51.1134 21.3592 50.6702 21.8677C50.227 22.3691 50.0054 22.696 50.0054 22.8486C50.0054 22.8776 50.0163 22.8922 50.0381 22.8922C50.0744 22.8922 50.1398 22.8704 50.2343 22.8268C50.3287 22.7759 50.3868 22.7505 50.4086 22.7505C50.4885 22.7505 50.5285 22.7795 50.5285 22.8377C50.5285 23.0629 50.3505 23.2881 49.9945 23.5133C49.6385 23.7386 49.337 23.8512 49.09 23.8512C48.8502 23.8512 48.6541 23.7822 48.5015 23.6441C48.3489 23.5133 48.2726 23.3353 48.2726 23.1101C48.2726 22.8849 48.3816 22.6342 48.5996 22.3582C48.8248 22.0748 49.0536 21.875 49.2861 21.7588C49.5259 21.6425 49.6458 21.5481 49.6458 21.4754C49.6458 21.4536 49.6421 21.4391 49.6349 21.4318C49.3152 21.5626 49.0536 21.628 48.8502 21.628C48.4506 21.628 48.2508 21.5117 48.2508 21.2793C48.2508 21.0104 48.4833 20.6581 48.9483 20.2221C49.4133 19.7862 49.7947 19.5247 50.0926 19.4375ZM54.3529 20.9196C54.3529 21.1158 54.4691 21.2139 54.7016 21.2139C54.9196 21.2139 55.1593 21.1594 55.4209 21.0504C55.6824 20.9414 55.8241 20.8869 55.8459 20.8869C55.8677 20.8869 55.8895 20.9051 55.9113 20.9414C55.9403 20.9777 55.9549 21.0141 55.9549 21.0504C55.9549 21.1303 55.7841 21.2357 55.4427 21.3664C55.1084 21.4899 54.8651 21.5517 54.7125 21.5517C54.5599 21.5517 54.4509 21.5517 54.3855 21.5517C54.3274 21.5444 54.2802 21.5808 54.2439 21.6607C53.7062 22.6706 53.1722 23.3063 52.6419 23.5678C52.4094 23.6841 52.1624 23.7422 51.9008 23.7422C51.6465 23.7422 51.4358 23.6586 51.2687 23.4915C51.1089 23.3172 51.029 23.0447 51.029 22.6742C51.029 22.1584 51.1961 21.6788 51.5303 21.2357C51.8717 20.7852 52.2568 20.4474 52.6855 20.2221C53.1141 19.9969 53.5028 19.8843 53.8515 19.8843C54.44 19.9497 54.7343 20.1277 54.7343 20.4183C54.7343 20.4982 54.7125 20.5709 54.6689 20.6363C54.6326 20.6944 54.5999 20.7307 54.5708 20.7453C54.549 20.7525 54.52 20.7598 54.4836 20.767C54.3964 20.7888 54.3529 20.8397 54.3529 20.9196ZM53.4592 21.4209C53.2267 21.5953 52.9979 21.8169 52.7726 22.0857C52.5547 22.3545 52.4457 22.5761 52.4457 22.7505C52.4457 22.9176 52.4929 23.0011 52.5874 23.0011C52.7327 23.0011 52.9979 22.7795 53.3829 22.3364C53.7753 21.8859 53.9714 21.5154 53.9714 21.2248C53.9714 21.1812 53.9424 21.1594 53.8842 21.1594C53.8334 21.1594 53.6917 21.2466 53.4592 21.4209ZM57.9054 19.7426L57.8509 19.9933C57.8509 20.0078 57.8691 20.0587 57.9054 20.1459C57.949 20.2258 57.9672 20.3021 57.9599 20.3747C57.9599 20.4474 57.8364 20.6181 57.5894 20.8869C57.3424 21.1557 57.2189 21.3119 57.2189 21.3555C57.2189 21.3991 57.2261 21.4209 57.2407 21.4209C57.3206 21.4209 57.7565 21.123 58.5484 20.5273C58.73 20.3892 58.9262 20.3202 59.1369 20.3202C59.3549 20.3202 59.4638 20.4219 59.4638 20.6254C59.4638 20.945 59.2495 21.4246 58.8209 22.0639C58.7555 22.1656 58.7083 22.2346 58.6792 22.271C58.6574 22.3073 58.6465 22.3436 58.6465 22.3799C58.6465 22.409 58.6574 22.4235 58.6792 22.4235C58.701 22.4235 58.7446 22.4054 58.81 22.3691C58.8754 22.3255 59.3331 21.9259 60.1831 21.1703C61.0404 20.4074 61.5744 19.9497 61.7851 19.7971C61.9958 19.6446 62.1484 19.5683 62.2428 19.5683C62.3373 19.5683 62.4136 19.5901 62.4717 19.6337C62.5371 19.67 62.5698 19.7245 62.5698 19.7971C62.5698 19.8698 62.4681 19.9715 62.2646 20.1023C62.0612 20.2258 61.687 20.52 61.1421 20.985C60.5972 21.45 60.0596 21.9186 59.5292 22.3908C58.9989 22.8631 58.6974 23.1283 58.6247 23.1864C58.1743 23.5642 57.7819 23.7531 57.4477 23.7531C57.2588 23.7531 57.1099 23.695 57.0009 23.5787C56.8992 23.4697 56.8483 23.3172 56.8483 23.121C56.8483 22.9176 56.9391 22.6706 57.1208 22.3799C57.3024 22.0893 57.3932 21.9295 57.3932 21.9004C57.3932 21.8714 57.3823 21.8568 57.3605 21.8568C57.3024 21.8786 57.168 21.9622 56.9573 22.1075C56.347 22.5289 55.9002 22.8304 55.6169 23.012C55.3335 23.1937 55.1446 23.2845 55.0502 23.2845C54.9557 23.2845 54.854 23.2155 54.745 23.0774C54.6433 22.9394 54.5924 22.8195 54.5924 22.7178C54.5924 22.449 54.7922 22.0603 55.1918 21.5517C55.5987 21.0431 56.0528 20.5854 56.5541 20.1786C57.0554 19.7717 57.4332 19.5683 57.6875 19.5683C57.8328 19.5828 57.9054 19.6409 57.9054 19.7426Z" fill="white"/>
</svg>
