<svg width="66" height="33" viewBox="0 0 66 33" fill="none" xmlns="http://www.w3.org/2000/svg">
<path fill-rule="evenodd" clip-rule="evenodd" d="M8.44735 4.26347V14.9321L5.58153 12.0712C4.72664 11.2076 4.24709 10.0416 4.24709 8.82644C4.24709 7.6113 4.72664 6.44527 5.58153 5.58172C6.34946 4.81522 7.36563 4.34779 8.44735 4.26347ZM21.6838 7.86745L12.6952 16.8561V0.883847C11.3732 0.245798 9.91386 -0.0550225 8.44735 0.00826892C6.23664 0.0989302 4.14101 1.01826 2.57716 2.58345C0.926495 4.24411 0 6.49047 0 8.83195C0 11.1734 0.926495 13.4198 2.57716 15.0804L7.45038 19.9524L8.44735 20.9506V22.6527C8.39264 23.7842 7.91929 24.855 7.11929 25.6571C6.44209 26.3259 5.57498 26.7696 4.63632 26.9274C3.69766 27.0852 2.73318 26.9494 1.8745 26.5388V31.0098C3.33562 31.3475 4.85859 31.3087 6.30059 30.8969C7.74259 30.4851 9.05638 29.7137 10.1188 28.6553C11.6653 27.1079 12.5802 25.0402 12.6853 22.855L13.9374 24.107L19.9461 30.1158H25.9549L16.9442 21.1039L12.6939 16.8561L18.6794 16.8781L27.6901 7.86745H21.6838Z" fill="white"/>
<path d="M32.1242 29.0874V19.9548H33.4355V29.0874H32.1242ZM34.6649 25.7622L36.9246 29.0874H35.4025L33.7985 26.5115L34.6649 25.7622ZM33.0374 27.6004L32.9086 26.3359L35.9177 24.0176L36.7139 24.7201L33.0374 27.6004ZM40.3893 29.2162C39.8038 29.2162 39.3043 29.103 38.8906 28.8767C38.4769 28.6503 38.1607 28.3381 37.9422 27.94C37.7236 27.5341 37.6144 27.0774 37.6144 26.5701C37.6144 26.0705 37.7392 25.6217 37.989 25.2236C38.2388 24.8255 38.5744 24.5094 38.996 24.2752C39.4253 24.0332 39.8975 23.9122 40.4127 23.9122C41.0918 23.9122 41.6499 24.1113 42.087 24.5094C42.5319 24.8997 42.8285 25.4539 42.9768 26.172L38.9842 27.5185L38.6798 26.7808L41.7943 25.6685L41.525 25.8207C41.4391 25.5866 41.2986 25.3836 41.1035 25.2119C40.9161 25.0402 40.6508 24.9543 40.3073 24.9543C40.0341 24.9543 39.7921 25.0207 39.5814 25.1533C39.3706 25.2782 39.2028 25.4578 39.0779 25.6919C38.9608 25.9183 38.9023 26.1876 38.9023 26.4998C38.9023 26.8199 38.9686 27.1009 39.1013 27.3428C39.234 27.5848 39.4136 27.7721 39.6399 27.9048C39.8663 28.0297 40.1239 28.0922 40.4127 28.0922C40.6156 28.0922 40.8108 28.0571 40.9981 27.9868C41.1854 27.9166 41.3611 27.8229 41.525 27.7058L42.1221 28.6776C41.8645 28.8415 41.5796 28.9742 41.2674 29.0757C40.963 29.1694 40.6703 29.2162 40.3893 29.2162ZM45.4497 24.1347L45.5668 25.5397L45.52 25.3407C45.6605 25.0441 45.8517 24.7904 46.0937 24.5796C46.3435 24.3611 46.5971 24.1972 46.8547 24.0879C47.1123 23.9708 47.3231 23.9122 47.487 23.9122L47.4284 25.2236C47.0538 25.1924 46.7259 25.2626 46.4449 25.4344C46.1717 25.5983 45.9571 25.8168 45.801 26.09C45.6527 26.3632 45.5785 26.652 45.5785 26.9565V29.0874H44.2672V24.1347H45.4497ZM50.7763 29.2162C50.3079 29.2162 49.8825 29.1186 49.5 28.9235C49.1254 28.7283 48.8287 28.4395 48.6102 28.0571C48.3916 27.6668 48.2823 27.1867 48.2823 26.6169C48.2823 26.0549 48.3955 25.5749 48.6219 25.1768C48.8561 24.7709 49.1605 24.4586 49.5352 24.2401C49.9176 24.0215 50.3313 23.9122 50.7763 23.9122C51.2524 23.9122 51.6349 24.0059 51.9237 24.1933C52.2203 24.3806 52.4506 24.6031 52.6145 24.8606L52.5442 25.048L52.673 24.1347H53.879V29.0874H52.5677V27.8814L52.6964 28.1976C52.6652 28.2444 52.6028 28.3224 52.5091 28.4317C52.4154 28.5332 52.2866 28.6464 52.1227 28.7713C51.9588 28.8962 51.7637 29.0015 51.5373 29.0874C51.3187 29.1733 51.0651 29.2162 50.7763 29.2162ZM51.1392 28.139C51.3734 28.139 51.5841 28.0961 51.7715 28.0102C51.9666 27.9244 52.1305 27.8034 52.2632 27.6473C52.4037 27.4911 52.5052 27.3038 52.5677 27.0853V26.0081C52.5052 25.8051 52.4037 25.6295 52.2632 25.4812C52.1227 25.3251 51.951 25.2041 51.7481 25.1182C51.5529 25.0324 51.3344 24.9894 51.0924 24.9894C50.827 24.9894 50.5811 25.0558 50.3547 25.1885C50.1284 25.3212 49.9449 25.5046 49.8044 25.7388C49.6718 25.9729 49.6054 26.2422 49.6054 26.5467C49.6054 26.8433 49.6757 27.1126 49.8162 27.3545C49.9567 27.5965 50.144 27.7878 50.3782 27.9283C50.6123 28.0688 50.866 28.139 51.1392 28.139ZM55.6898 19.9548H57.0011V29.0874H55.6898V19.9548ZM60.884 29.2162C60.4156 29.2162 59.9902 29.1186 59.6077 28.9235C59.2331 28.7283 58.9365 28.4395 58.7179 28.0571C58.4993 27.6668 58.3901 27.1867 58.3901 26.6169C58.3901 26.0549 58.5032 25.5749 58.7296 25.1768C58.9638 24.7709 59.2682 24.4586 59.6429 24.2401C60.0254 24.0215 60.4391 23.9122 60.884 23.9122C61.3601 23.9122 61.7426 24.0059 62.0314 24.1933C62.328 24.3806 62.5583 24.6031 62.7222 24.8606L62.652 25.048L62.7808 24.1347H63.9867V29.0874H62.6754V27.8814L62.8042 28.1976C62.7729 28.2444 62.7105 28.3224 62.6168 28.4317C62.5232 28.5332 62.3944 28.6464 62.2305 28.7713C62.0665 28.8962 61.8714 29.0015 61.645 29.0874C61.4265 29.1733 61.1728 29.2162 60.884 29.2162ZM61.2469 28.139C61.4811 28.139 61.6919 28.0961 61.8792 28.0102C62.0743 27.9244 62.2383 27.8034 62.371 27.6473C62.5115 27.4911 62.6129 27.3038 62.6754 27.0853V26.0081C62.6129 25.8051 62.5115 25.6295 62.371 25.4812C62.2305 25.3251 62.0587 25.2041 61.8558 25.1182C61.6606 25.0324 61.4421 24.9894 61.2001 24.9894C60.9347 24.9894 60.6888 25.0558 60.4625 25.1885C60.2361 25.3212 60.0527 25.5046 59.9122 25.7388C59.7795 25.9729 59.7131 26.2422 59.7131 26.5467C59.7131 26.8433 59.7834 27.1126 59.9239 27.3545C60.0644 27.5965 60.2517 27.7878 60.4859 27.9283C60.7201 28.0688 60.9737 28.139 61.2469 28.139Z" fill="white"/>
</svg>
