<svg width="26" height="29" viewBox="0 0 26 29" fill="none" xmlns="http://www.w3.org/2000/svg">
<path d="M2.17125 16.8365C1.91894 16.8373 1.67156 16.7666 1.45786 16.6325C1.24416 16.4983 1.0729 16.3063 0.963988 16.0787C0.855076 15.8511 0.812978 15.5973 0.842587 15.3467C0.872196 15.0961 0.972295 14.8591 1.13125 14.6631L14.3313 1.06315C14.4303 0.948856 14.5652 0.871622 14.7139 0.844124C14.8626 0.816626 15.0162 0.840497 15.1496 0.911819C15.2829 0.983141 15.388 1.09768 15.4477 1.23662C15.5074 1.37557 15.518 1.53068 15.4779 1.67648L12.9179 9.70315C12.8424 9.90518 12.8171 10.1225 12.844 10.3365C12.871 10.5505 12.9495 10.7547 13.0727 10.9317C13.1959 11.1087 13.3603 11.2532 13.5516 11.3527C13.743 11.4522 13.9556 11.5038 14.1713 11.5031H23.5046C23.7569 11.5023 24.0043 11.573 24.218 11.7072C24.4317 11.8413 24.6029 12.0333 24.7119 12.2609C24.8208 12.4885 24.8629 12.7424 24.8333 12.9929C24.8036 13.2435 24.7035 13.4805 24.5446 13.6765L11.3446 27.2765C11.2456 27.3908 11.1106 27.468 10.9619 27.4955C10.8132 27.523 10.6596 27.4991 10.5263 27.4278C10.3929 27.3565 10.2878 27.242 10.2281 27.103C10.1685 26.9641 10.1578 26.809 10.1979 26.6631L12.7579 18.6365C12.8334 18.4344 12.8588 18.2171 12.8318 18.0031C12.8048 17.7892 12.7264 17.5849 12.6031 17.4079C12.4799 17.2309 12.3156 17.0865 12.1242 16.9869C11.9329 16.8874 11.7203 16.8358 11.5046 16.8365H2.17125Z" stroke="#F23621" stroke-width="1.66667" stroke-linecap="round" stroke-linejoin="round"/>
</svg>
