<svg width="29" height="23" viewBox="0 0 29 23" fill="none" xmlns="http://www.w3.org/2000/svg">
<path d="M16.832 19.4987V3.4987C16.832 2.79145 16.5511 2.11318 16.051 1.61308C15.5509 1.11298 14.8726 0.832031 14.1654 0.832031H3.4987C2.79145 0.832031 2.11318 1.11298 1.61308 1.61308C1.11298 2.11318 0.832031 2.79145 0.832031 3.4987V18.1654C0.832031 18.519 0.972507 18.8581 1.22256 19.1082C1.4726 19.3582 1.81174 19.4987 2.16536 19.4987H4.83203" stroke="#F23621" stroke-width="1.66667" stroke-linecap="round" stroke-linejoin="round"/>
<path d="M18.1641 19.5H10.1641" stroke="#F23621" stroke-width="1.66667" stroke-linecap="round" stroke-linejoin="round"/>
<path d="M23.4987 19.5013H26.1654C26.519 19.5013 26.8581 19.3608 27.1082 19.1108C27.3582 18.8607 27.4987 18.5216 27.4987 18.168V13.3013C27.4982 12.9987 27.3947 12.7053 27.2054 12.4693L22.5654 6.6693C22.4407 6.51314 22.2825 6.38701 22.1024 6.30023C21.9224 6.21346 21.7252 6.16825 21.5254 6.16797H16.832" stroke="#F23621" stroke-width="1.66667" stroke-linecap="round" stroke-linejoin="round"/>
<path d="M20.8307 22.1654C22.3035 22.1654 23.4974 20.9715 23.4974 19.4987C23.4974 18.0259 22.3035 16.832 20.8307 16.832C19.358 16.832 18.1641 18.0259 18.1641 19.4987C18.1641 20.9715 19.358 22.1654 20.8307 22.1654Z" stroke="#F23621" stroke-width="1.66667" stroke-linecap="round" stroke-linejoin="round"/>
<path d="M7.4987 22.1654C8.97146 22.1654 10.1654 20.9715 10.1654 19.4987C10.1654 18.0259 8.97146 16.832 7.4987 16.832C6.02594 16.832 4.83203 18.0259 4.83203 19.4987C4.83203 20.9715 6.02594 22.1654 7.4987 22.1654Z" stroke="#F23621" stroke-width="1.66667" stroke-linecap="round" stroke-linejoin="round"/>
</svg>
