<svg width="23" height="29" viewBox="0 0 23 29" fill="none" xmlns="http://www.w3.org/2000/svg">
<path d="M12.832 0.832031H4.16536C3.28131 0.832031 2.43346 1.18322 1.80834 1.80834C1.18322 2.43346 0.832031 3.28131 0.832031 4.16536V24.1654" stroke="#F23621" stroke-width="1.66667" stroke-linecap="round" stroke-linejoin="round"/>
<path d="M18.168 0.832031V8.83203" stroke="#F23621" stroke-width="1.66667" stroke-linecap="round" stroke-linejoin="round"/>
<path d="M18.168 3.49609H20.8346" stroke="#F23621" stroke-width="1.66667" stroke-linecap="round" stroke-linejoin="round"/>
<path d="M22.1654 18.4297V26.163C22.1654 26.5166 22.0249 26.8558 21.7748 27.1058C21.5248 27.3559 21.1857 27.4964 20.832 27.4964H4.16536C3.28131 27.4964 2.43346 27.1452 1.80834 26.52C1.18322 25.8949 0.832031 25.0471 0.832031 24.163C0.832031 23.279 1.18322 22.4311 1.80834 21.806C2.43346 21.1809 3.28131 20.8297 4.16536 20.8297H22.1654" stroke="#F23621" stroke-width="1.66667" stroke-linecap="round" stroke-linejoin="round"/>
<path d="M18.1667 14.1654C19.6394 14.1654 20.8333 12.9715 20.8333 11.4987C20.8333 10.0259 19.6394 8.83203 18.1667 8.83203C16.6939 8.83203 15.5 10.0259 15.5 11.4987C15.5 12.9715 16.6939 14.1654 18.1667 14.1654Z" stroke="#F23621" stroke-width="1.66667" stroke-linecap="round" stroke-linejoin="round"/>
</svg>
