<svg width="17" height="17" viewBox="0 0 17 17" fill="none" xmlns="http://www.w3.org/2000/svg">
<path d="M9.47235 0.0786848C5.3502 -0.489432 1.44079 2.07088 0.31313 6.07713C-0.814528 10.0834 1.18519 14.3077 4.99819 15.9741C4.94813 15.334 4.99372 14.69 5.13345 14.0634C5.2873 13.3645 6.2136 9.511 6.2136 9.511C6.02902 9.09775 5.9367 8.64917 5.94309 8.19658C5.94309 6.95909 6.65721 6.03579 7.54568 6.03579C7.8686 6.03099 8.17768 6.1669 8.39243 6.40818C8.60718 6.64945 8.70643 6.97225 8.66426 7.2925C8.66426 8.04267 8.18226 9.17759 7.9316 10.2419C7.83043 10.638 7.92351 11.0586 8.18235 11.375C8.44118 11.6913 8.83501 11.8658 9.24318 11.8449C10.8246 11.8449 11.8855 9.81875 11.8855 7.42717C11.8855 5.59338 10.6708 4.22125 8.43285 4.22125C7.35093 4.17943 6.29916 4.583 5.52279 5.33786C4.7464 6.09272 4.3133 7.13292 4.32445 8.21583C4.30062 8.81017 4.49231 9.39308 4.86421 9.85725C5.00727 9.96367 5.06247 10.1521 4.99947 10.3189C4.96101 10.4728 4.86421 10.8383 4.82575 10.9729C4.80953 11.065 4.75059 11.144 4.6669 11.1857C4.5832 11.2274 4.48469 11.227 4.40138 11.1845C3.24751 10.7228 2.7039 9.45325 2.7039 8.00425C2.7039 5.63185 4.69113 2.79142 8.6656 2.79142C11.8291 2.79142 13.9318 5.10609 13.9318 7.581C13.9318 10.8383 12.1183 13.2876 9.43743 13.2876C8.6231 13.3134 7.85201 12.9218 7.39251 12.2488C7.39251 12.2488 6.91043 14.1788 6.81551 14.5443C6.62177 15.1749 6.33575 15.7734 5.9668 16.3203C6.73568 16.5536 7.53518 16.6703 8.33868 16.6667C10.5489 16.6681 12.6691 15.7903 14.2317 14.2267C15.7943 12.6631 16.6708 10.542 16.6683 8.33125C16.6659 4.16922 13.5945 0.646801 9.47235 0.0786848Z" fill="#727272"/>
</svg>
