<svg width="1311" height="229" viewBox="0 0 1311 229" fill="none" xmlns="http://www.w3.org/2000/svg">
<path opacity="0.3" d="M-0.00139362 46.3004L7.15418 3.36692H180.712L173.556 46.3004H111.962L84.6027 212.422H34.0928L61.5927 46.3004H-0.00139362ZM177.765 212.422V3.36692H263.913C280.095 3.36692 294.079 6.26656 305.864 12.0658C317.65 17.7716 326.723 25.9093 333.083 36.479C339.538 47.0486 342.765 59.5826 342.765 74.0808C342.765 87.4566 339.725 99.1487 333.645 109.157C327.565 119.166 319.053 127.023 308.109 132.728L348.236 212.422H294.92L260.826 142.971H228.275V212.422H177.765ZM228.275 103.264H260.546C270.648 103.264 278.645 100.599 284.538 95.2669C290.431 89.9353 293.377 82.8733 293.377 74.0808C293.377 65.1948 290.431 58.086 284.538 52.7544C278.645 47.4228 270.601 44.757 260.405 44.757H228.275V103.264ZM354.129 212.422L425.966 3.36692H492.47L564.728 212.422H508.325L495.978 172.154H421.756L408.989 212.422H354.129ZM434.384 132.728H483.771L479.983 120.522C476.522 108.83 473.061 97.1377 469.601 85.4455C466.233 73.7534 462.819 61.5001 459.358 48.6855C455.804 61.5001 452.296 73.7534 448.835 85.4455C445.375 97.1377 441.82 108.83 438.172 120.522L434.384 132.728ZM579.039 212.422V3.36692H631.232L690.582 98.3536C693.107 102.282 696.381 107.848 700.403 115.05C704.425 122.159 708.447 129.455 712.469 136.938C712.282 128.706 712.095 120.662 711.908 112.805C711.814 104.948 711.768 98.681 711.768 94.0042V3.36692H762.278V212.422H709.944L655.505 125.433C652.418 120.569 648.537 114.068 643.86 105.93C639.183 97.7924 634.132 88.8129 628.707 78.9915C629.081 89.187 629.315 98.3536 629.408 106.491C629.502 114.629 629.549 120.896 629.549 125.292V212.422H579.039ZM872.417 215.789C844.543 215.789 823.03 209.522 807.877 196.988C792.724 184.361 785.147 166.495 785.147 143.392H833.272C833.646 153.4 837.294 161.21 844.216 166.823C851.231 172.435 860.772 175.241 872.838 175.241C883.501 175.241 892.06 173.183 898.514 169.068C905.062 164.858 908.335 159.34 908.335 152.511C908.335 146.619 905.482 141.802 899.777 138.06C894.165 134.319 885.045 131.138 872.417 128.519L850.95 124.17C809.794 115.751 789.216 96.062 789.216 65.1013C789.216 52.1932 792.63 40.8752 799.458 31.1474C806.38 21.326 816.014 13.7027 828.361 8.2776C840.708 2.75893 855.066 -0.000410199 871.435 -0.000410199C896.503 -0.000410199 916.286 6.07949 930.784 18.2393C945.282 30.3055 952.859 47.0486 953.514 68.4686H906.792C906.044 59.8632 902.583 53.0818 896.409 48.1243C890.236 43.0733 882.145 40.5478 872.137 40.5478C862.596 40.5478 854.786 42.6056 848.706 46.7213C842.719 50.8369 839.726 56.1685 839.726 62.7161C839.726 68.4218 842.345 73.0051 847.583 76.466C852.915 79.9269 861.567 82.8733 873.54 85.3052L891.92 88.9532C915.117 93.5365 931.953 100.645 942.43 110.28C952.999 119.82 958.284 132.682 958.284 148.864C958.284 169.909 950.708 186.325 935.555 198.111C920.402 209.896 899.356 215.789 872.417 215.789ZM1031.66 3.36692V212.422H981.154V3.36692H1031.66ZM1152.47 215.789C1133.57 215.789 1116.55 211.533 1101.4 203.021C1086.34 194.416 1074.41 182.069 1065.62 165.981C1056.83 149.892 1052.43 130.577 1052.43 108.035C1052.43 85.3052 1056.83 65.8963 1065.62 49.808C1074.41 33.6261 1086.34 21.2792 1101.4 12.7674C1116.55 4.25552 1133.57 -0.000410199 1152.47 -0.000410199C1171.27 -0.000410199 1188.2 4.25552 1203.26 12.7674C1218.41 21.2792 1230.38 33.6261 1239.18 49.808C1247.97 65.8963 1252.36 85.3052 1252.36 108.035C1252.36 126.555 1249.32 142.924 1243.24 157.142C1237.26 171.359 1229.03 183.051 1218.55 192.218L1248.86 228.838H1204.8L1189.23 209.475C1177.82 213.685 1165.56 215.789 1152.47 215.789ZM1133.24 137.92H1173.37L1187.54 155.879C1192.03 150.454 1195.49 143.719 1197.93 135.675C1200.36 127.631 1201.57 118.417 1201.57 108.035C1201.57 87.7372 1197.13 72.023 1188.24 60.8921C1179.36 49.6677 1167.43 44.0555 1152.47 44.0555C1137.5 44.0555 1125.53 49.6677 1116.55 60.8921C1107.66 72.023 1103.22 87.7372 1103.22 108.035C1103.22 128.239 1107.66 143.906 1116.55 155.037C1125.53 166.168 1137.5 171.733 1152.47 171.733C1154.62 171.733 1156.68 171.64 1158.64 171.453L1133.24 137.92ZM1283.79 215.088C1276.5 215.088 1270.28 212.515 1265.13 207.371C1259.99 202.226 1257.42 195.959 1257.42 188.57C1257.42 181.274 1259.99 175.054 1265.13 169.909C1270.28 164.765 1276.5 162.193 1283.79 162.193C1291.09 162.193 1297.31 164.765 1302.45 169.909C1307.6 175.054 1310.17 181.274 1310.17 188.57C1310.17 195.959 1307.6 202.226 1302.45 207.371C1297.31 212.515 1291.09 215.088 1283.79 215.088Z" fill="white"/>
</svg>
