<svg width="88" height="37" viewBox="0 0 88 37" fill="none" xmlns="http://www.w3.org/2000/svg">
<path fill-rule="evenodd" clip-rule="evenodd" d="M22.8873 22.3374L9.04492 36.1813L22.8873 29.2593L36.7312 36.1813L22.8873 22.3374ZM22.8873 0L0 36.1813L22.8873 13.2909L45.773 36.1813L22.8873 0Z" fill="#797777"/>
<path d="M63.5371 8.77699C63.2413 9.53174 62.9455 10.2253 62.6497 10.8576C62.3642 11.4798 62.2214 11.8215 62.2214 11.8827C62.2214 11.9337 62.2367 11.9592 62.2673 11.9592C62.3489 11.9592 62.4356 11.9082 62.5273 11.8062C62.6191 11.694 63.1648 11.0922 64.1643 10.0009C66.5 7.45108 68.0758 6.02318 68.8917 5.7172C69.1569 5.60501 69.366 5.54892 69.519 5.54892C69.6719 5.54892 69.8249 5.60501 69.9779 5.7172C70.1411 5.8192 70.2227 5.92119 70.2227 6.02318C70.2227 6.11498 70.1768 6.20167 70.085 6.28326L69.8249 6.48215C68.1726 7.75706 66.5102 9.29205 64.8375 11.0871C64.5621 11.3931 64.1898 11.8011 63.7207 12.311C63.2617 12.821 62.8894 13.2341 62.6038 13.5503C62.3183 13.8664 61.9766 14.2336 61.5788 14.6518C61.181 15.0699 60.8445 15.4065 60.5691 15.6615C60.3039 15.9063 60.0234 16.1511 59.7276 16.3959C59.1769 16.865 58.7281 17.0996 58.3813 17.0996C58.0448 17.0996 57.698 16.8599 57.341 16.3806C56.984 15.891 56.8055 15.4932 56.8055 15.1872C56.8055 14.8813 57.1013 14.101 57.6929 12.8465C58.2844 11.5818 58.8505 10.6843 59.3911 10.1539C59.5237 10.0213 59.59 9.91931 59.59 9.84791C59.59 9.76632 59.5441 9.72552 59.4523 9.72552C59.3707 9.72552 59.2891 9.77652 59.2075 9.87851C59.1259 9.9703 58.8964 10.2355 58.519 10.6741C58.1519 11.1024 57.8306 11.4747 57.5552 11.7909C57.2798 12.0969 56.9177 12.4997 56.469 12.9995C56.0304 13.4891 55.6275 13.9072 55.2604 14.254C54.9034 14.6008 54.5311 14.9476 54.1435 15.2943C53.348 16.0083 52.736 16.3653 52.3077 16.3653C51.9507 16.3449 51.7722 16.0899 51.7722 15.6003C51.7722 15.1107 51.9711 14.4121 52.3689 13.5044C52.7666 12.5966 53.1338 12.1428 53.4704 12.1428C53.6948 12.1428 53.807 12.2396 53.807 12.4334C53.807 12.5864 53.6591 12.9587 53.3633 13.5503C53.0573 14.1418 52.9043 14.4784 52.9043 14.56C52.9043 14.6314 52.9247 14.6671 52.9655 14.6671C53.0573 14.6671 53.4092 14.3866 54.0211 13.8256C54.6331 13.2545 55.2196 12.6833 55.7805 12.1122L56.6373 11.2707C57.392 10.567 58.5853 9.31245 60.2172 7.50718C60.7068 6.96662 61.2065 6.48725 61.7165 6.06908C62.2265 5.65091 62.6395 5.44182 62.9557 5.44182C63.2719 5.44182 63.5218 5.64581 63.7054 6.05378C63.8889 6.46175 63.9807 6.82893 63.9807 7.1553C63.9807 7.48168 63.8329 8.02224 63.5371 8.77699ZM62.2814 17.0843C62.1284 16.9415 62.0519 16.7579 62.0519 16.5335C62.0519 15.8196 62.4752 15.0088 63.3217 14.101C64.1784 13.1933 64.974 12.6731 65.7083 12.5405C66.1673 12.5405 66.3968 12.8108 66.3968 13.3514C66.3968 13.5248 66.1673 13.9327 65.7083 14.5753C65.2494 15.2178 64.7241 15.8349 64.1325 16.4265C63.541 17.018 63.1228 17.3138 62.878 17.3138C62.6332 17.3138 62.4344 17.2373 62.2814 17.0843ZM66.6722 12.051C67.1617 12 67.5646 11.7909 67.8808 11.4237C68.1969 11.0463 68.355 10.7251 68.355 10.4599C68.355 10.0417 68.146 9.83261 67.7278 9.83261C67.4422 9.83261 67.1056 9.96011 66.7181 10.2151C66.3305 10.4701 66.1112 10.8423 66.0602 11.3319L66.0755 11.5002C66.0959 11.6226 66.1571 11.745 66.2591 11.8674C66.3611 11.9898 66.4988 12.051 66.6722 12.051ZM66.6957 10.7506C66.6957 10.5874 67.1343 10.4395 68.0114 10.3069C68.8885 10.1743 69.8269 10.0825 70.8264 10.0315C71.6628 9.27675 72.4175 8.6342 73.0907 8.10384L73.4272 7.82846C73.5802 7.82846 73.6567 7.94065 73.6567 8.16503L73.6873 8.91468C73.6567 9.02687 73.4425 9.37875 73.0448 9.9703H73.7944C74.9265 9.9703 75.5793 10.0825 75.7527 10.3069C75.9363 10.5211 76.028 10.6945 76.028 10.827C76.028 11.0004 75.8547 11.0922 75.5079 11.1024C75.1611 11.1126 74.0749 11.1177 72.2492 11.1177C70.7907 12.617 69.6484 13.948 68.8223 15.1107C68.5061 15.5391 68.2307 15.9216 67.9961 16.2582C67.7615 16.5947 67.5779 16.8293 67.4453 16.9619C67.323 17.1047 67.2057 17.1761 67.0935 17.1761C66.7569 17.1761 66.4713 17.0639 66.2367 16.8395C66.0022 16.6151 65.8849 16.3398 65.8849 16.0134C65.8849 15.1158 67.1343 13.4891 69.6331 11.133H67.2771C66.8895 11.133 66.6957 11.0055 66.6957 10.7506ZM75.9917 14.4988C75.9815 14.6008 75.65 14.8711 74.9973 15.3096C74.3445 15.738 73.5898 16.1562 72.733 16.5641C71.8763 16.9721 71.2592 17.1761 70.8819 17.1761C70.5147 17.1761 70.1985 17.0639 69.9333 16.8395C69.6682 16.6049 69.5356 16.3398 69.5356 16.044C69.5356 15.432 69.8058 14.8048 70.3464 14.1622C70.8972 13.5095 71.5295 12.9842 72.2435 12.5864C72.9676 12.1784 73.5796 11.9745 74.0793 11.9745C74.5893 11.9745 74.9718 12.0408 75.2268 12.1734C75.4817 12.2957 75.6092 12.5303 75.6092 12.8771C75.6092 13.2239 75.3849 13.6267 74.9361 14.0857C74.4975 14.5345 74.1201 14.7589 73.804 14.7589C73.6 14.7589 73.498 14.6977 73.498 14.5753C73.498 14.4937 73.549 14.4223 73.651 14.3611C73.7632 14.2999 73.9417 14.1571 74.1864 13.9327C74.4312 13.7083 74.5536 13.5554 74.5536 13.4738C74.5536 13.4432 74.523 13.4279 74.4618 13.4279C74.1048 13.4279 73.6 13.7542 72.9472 14.407C72.2945 15.0597 71.9681 15.5493 71.9681 15.8757C71.9681 16.0389 72.0548 16.1205 72.2282 16.1205C72.4118 16.1205 72.7024 16.0185 73.1002 15.8145C73.498 15.6003 73.9876 15.3147 74.5689 14.9578C75.1503 14.6008 75.4817 14.4019 75.5633 14.3611C75.6551 14.3101 75.7265 14.2846 75.7775 14.2846C75.9203 14.2846 75.9917 14.356 75.9917 14.4988ZM82.2808 16.197C81.9238 16.4723 81.4903 16.7375 80.9804 16.9925C80.4806 17.2475 80.0573 17.375 79.7105 17.375C79.374 17.375 79.1037 17.273 78.8997 17.069C78.6957 16.865 78.5937 16.6151 78.5937 16.3194C78.5937 15.8298 78.9456 15.1719 79.6494 14.3458C79.7105 14.2846 79.7411 14.2387 79.7411 14.2081C79.7411 14.1673 79.7309 14.1469 79.7105 14.1469C79.6901 14.1469 79.6137 14.1724 79.4811 14.2234C79.3587 14.2642 79.0119 14.4988 78.4407 14.9272C77.8696 15.3453 77.3137 15.7941 76.7732 16.2735C76.2326 16.7426 75.845 16.9772 75.6104 16.9772C75.3861 16.9772 75.2178 16.8803 75.1056 16.6865C75.0036 16.4927 74.9526 16.2735 74.9526 16.0287C74.9526 15.2739 75.539 14.1265 76.712 12.5864C77.8951 11.0463 79.1292 9.67453 80.4143 8.47101C81.6994 7.2573 82.5204 6.65044 82.8774 6.65044C83.0508 6.65044 83.214 6.72693 83.367 6.87992C83.5302 7.02271 83.6118 7.2216 83.6118 7.47658C83.6118 7.72136 83.3058 8.27212 82.6938 9.12886C82.0819 9.9856 81.3985 10.8882 80.6438 11.8368C79.6952 13.0199 79.221 13.6624 79.221 13.7644C79.221 13.8052 79.2414 13.8256 79.2822 13.8256C79.323 13.8256 79.4964 13.744 79.8023 13.5809C80.1083 13.4075 80.4398 13.2494 80.7968 13.1066C81.1537 12.9536 81.3985 12.8669 81.5311 12.8465C81.6739 12.8159 81.8371 12.8006 82.0207 12.8006C82.2145 12.8006 82.4032 12.8414 82.5867 12.923C82.7805 13.0046 82.8774 13.127 82.8774 13.2902C82.8774 13.4432 82.5051 13.948 81.7606 14.8048C81.0263 15.6513 80.6591 16.1358 80.6591 16.2582C80.6591 16.3704 80.7101 16.4265 80.8121 16.4265C81.0263 16.4265 81.4444 16.2021 82.0666 15.7533C82.3012 15.5901 82.4389 15.4983 82.4797 15.4779C82.5204 15.4575 82.5663 15.4473 82.6173 15.4473C82.7601 15.4473 82.8315 15.5187 82.8315 15.6615C82.8315 15.7431 82.6479 15.9216 82.2808 16.197ZM63.0169 22.3598C63.7309 22.3598 64.2714 22.4567 64.6386 22.6504C65.016 22.8442 65.2047 23.1451 65.2047 23.5531C65.2047 23.961 64.9497 24.4149 64.4397 24.9147C63.9399 25.4144 63.583 25.6643 63.3688 25.6643C63.1546 25.6643 63.0475 25.598 63.0475 25.4654C63.0475 25.3023 63.1801 25.0932 63.4453 24.8382C63.7207 24.573 63.8584 24.4098 63.8584 24.3486C63.8584 24.318 63.8329 24.3027 63.7819 24.3027C63.2413 24.3027 62.4254 24.7362 61.334 25.6031C60.2529 26.4701 59.2687 27.4492 58.3813 28.5405C57.5042 29.6217 57.0656 30.4427 57.0656 31.0037C57.0656 31.177 57.1268 31.2637 57.2492 31.2637C57.5348 31.2637 58.2895 30.7028 59.5135 29.5809C60.7374 28.4589 61.8899 27.3319 62.971 26.1998C63.073 26.1794 63.1597 26.1692 63.2311 26.1692C63.3025 26.1692 63.3841 26.1998 63.4759 26.261C63.5677 26.312 63.634 26.3681 63.6748 26.4293C63.7156 26.4905 63.7309 26.567 63.7207 26.6588C63.7105 26.7404 63.6442 26.9239 63.5218 27.2095C63.3994 27.4951 63.2566 27.7909 63.0934 28.0969C62.9404 28.3926 62.7466 28.7343 62.512 29.1219C62.2877 29.5095 62.0939 29.8307 61.9307 30.0857C61.7777 30.3305 61.6043 30.6008 61.4105 30.8966C61.2065 31.2331 61.1045 31.432 61.1045 31.4932C61.1045 31.5442 61.1198 31.5697 61.1504 31.5697C61.1912 31.5697 61.2218 31.5646 61.2422 31.5544C61.2626 31.5442 61.3187 31.5085 61.4105 31.4473C61.5023 31.3759 61.6094 31.2994 61.7318 31.2178C61.8542 31.1362 61.946 31.0699 62.0072 31.019C62.0684 30.968 62.1347 30.9425 62.2061 30.9425C62.2877 30.9425 62.3591 30.968 62.4203 31.019C62.4814 31.0699 62.512 31.1311 62.512 31.2025C62.512 31.5289 62.1347 31.9267 61.3799 32.3959C60.6252 32.8548 60.0999 33.0843 59.8041 33.0843C59.5186 33.0843 59.284 33.0078 59.1004 32.8548C58.927 32.7018 58.8403 32.5182 58.8403 32.3041C58.8403 32.0797 58.9015 31.8043 59.0239 31.4779L59.2075 31.0037C59.2075 30.9731 59.1973 30.9578 59.1769 30.9578C59.1565 30.9578 59.1208 30.9731 59.0698 31.0037C57.4685 32.2786 56.2752 32.916 55.4898 32.916C54.8881 32.916 54.4087 32.6814 54.0517 32.2123C53.705 31.7431 53.5316 31.1413 53.5316 30.407C53.5316 29.6726 53.7356 28.8924 54.1435 28.0663C54.5515 27.2401 55.0921 26.4956 55.7652 25.8326C56.4486 25.1595 57.2033 24.5577 58.0295 24.0273C58.8556 23.497 59.7174 23.089 60.615 22.8034C61.5125 22.5077 62.3132 22.3598 63.0169 22.3598ZM65.81 27.2095C65.8814 27.2095 65.9477 27.2452 66.0089 27.3166C66.0701 27.3778 66.1007 27.4543 66.1007 27.5461C66.1007 27.6277 66.0497 27.7348 65.9477 27.8674C65.55 28.3569 65.2848 28.668 65.1522 28.8006C65.0298 28.923 64.9686 29.0046 64.9686 29.0454C64.9686 29.0862 64.9992 29.1066 65.0604 29.1066C65.1318 29.1066 65.4072 29.0199 65.8865 28.8465C66.3659 28.6629 66.6821 28.5711 66.8351 28.5711C66.9881 28.5711 67.1461 28.6374 67.3093 28.77C67.4725 28.8924 67.5541 29.0556 67.5541 29.2596C67.5541 29.4534 67.243 29.9072 66.6209 30.6212C65.9987 31.3249 65.6876 31.7839 65.6876 31.9981C65.6876 32.0389 65.7029 32.0593 65.7335 32.0593C65.7845 32.0593 65.8763 32.0287 66.0089 31.9675C66.1415 31.8961 66.2231 31.8604 66.2537 31.8604C66.3659 31.8604 66.422 31.9012 66.422 31.9828C66.422 32.299 66.1721 32.6151 65.6723 32.9313C65.1726 33.2475 64.7493 33.4056 64.4025 33.4056C64.066 33.4056 63.7906 33.3087 63.5764 33.1149C63.3622 32.9313 63.2551 32.6814 63.2551 32.3653C63.2551 32.0491 63.4081 31.6972 63.7141 31.3096C64.0303 30.9119 64.3515 30.6314 64.6779 30.4682C65.0145 30.305 65.1828 30.1724 65.1828 30.0704C65.1828 30.0398 65.1777 30.0194 65.1675 30.0092C64.7187 30.1928 64.3515 30.2846 64.066 30.2846C63.505 30.2846 63.2245 30.1214 63.2245 29.795C63.2245 29.4177 63.5509 28.923 64.2037 28.311C64.8564 27.6991 65.3919 27.3319 65.81 27.2095ZM70.322 27.2095C70.3934 27.2095 70.4597 27.2452 70.5209 27.3166C70.5821 27.3778 70.6127 27.4543 70.6127 27.5461C70.6127 27.6277 70.5617 27.7348 70.4597 27.8674C70.0619 28.3569 69.7968 28.668 69.6642 28.8006C69.5418 28.923 69.4806 29.0046 69.4806 29.0454C69.4806 29.0862 69.5112 29.1066 69.5724 29.1066C69.6438 29.1066 69.9192 29.0199 70.3985 28.8465C70.8779 28.6629 71.1941 28.5711 71.3471 28.5711C71.5 28.5711 71.6581 28.6374 71.8213 28.77C71.9845 28.8924 72.0661 29.0556 72.0661 29.2596C72.0661 29.4534 71.755 29.9072 71.1329 30.6212C70.5107 31.3249 70.1996 31.7839 70.1996 31.9981C70.1996 32.0389 70.2149 32.0593 70.2455 32.0593C70.2965 32.0593 70.3883 32.0287 70.5209 31.9675C70.6535 31.8961 70.7351 31.8604 70.7657 31.8604C70.8779 31.8604 70.934 31.9012 70.934 31.9828C70.934 32.299 70.6841 32.6151 70.1843 32.9313C69.6846 33.2475 69.2613 33.4056 68.9145 33.4056C68.5779 33.4056 68.3026 33.3087 68.0884 33.1149C67.8742 32.9313 67.7671 32.6814 67.7671 32.3653C67.7671 32.0491 67.9201 31.6972 68.2261 31.3096C68.5423 30.9119 68.8635 30.6314 69.1899 30.4682C69.5265 30.305 69.6948 30.1724 69.6948 30.0704C69.6948 30.0398 69.6897 30.0194 69.6795 30.0092C69.2307 30.1928 68.8635 30.2846 68.5779 30.2846C68.017 30.2846 67.7365 30.1214 67.7365 29.795C67.7365 29.4177 68.0629 28.923 68.7156 28.311C69.3684 27.6991 69.9039 27.3319 70.322 27.2095ZM76.3027 29.2902C76.3027 29.5656 76.4659 29.7032 76.7923 29.7032C77.0983 29.7032 77.4348 29.6268 77.802 29.4738C78.1692 29.3208 78.3681 29.2443 78.3987 29.2443C78.4293 29.2443 78.4599 29.2698 78.4905 29.3208C78.5313 29.3718 78.5517 29.4228 78.5517 29.4738C78.5517 29.586 78.312 29.7338 77.8326 29.9174C77.3634 30.0908 77.0218 30.1775 76.8076 30.1775C76.5934 30.1775 76.4404 30.1775 76.3486 30.1775C76.267 30.1673 76.2007 30.2183 76.1497 30.3305C75.395 31.7482 74.6453 32.6406 73.9008 33.0078C73.5744 33.171 73.2276 33.2526 72.8605 33.2526C72.5035 33.2526 72.2077 33.1353 71.9731 32.9007C71.7487 32.6559 71.6365 32.2735 71.6365 31.7533C71.6365 31.0292 71.8711 30.356 72.3403 29.7338C72.8197 29.1015 73.3602 28.6272 73.962 28.311C74.5637 27.9949 75.1094 27.8368 75.599 27.8368C76.4251 27.9286 76.8382 28.1785 76.8382 28.5864C76.8382 28.6986 76.8076 28.8006 76.7464 28.8924C76.6954 28.974 76.6495 29.025 76.6087 29.0454C76.5781 29.0556 76.5373 29.0658 76.4863 29.076C76.3639 29.1066 76.3027 29.178 76.3027 29.2902ZM75.0482 29.9939C74.7218 30.2387 74.4005 30.5498 74.0844 30.9272C73.7784 31.3045 73.6254 31.6156 73.6254 31.8604C73.6254 32.095 73.6917 32.2123 73.8243 32.2123C74.0283 32.2123 74.4005 31.9012 74.9411 31.279C75.4919 30.6467 75.7672 30.1265 75.7672 29.7185C75.7672 29.6573 75.7265 29.6268 75.6449 29.6268C75.5735 29.6268 75.3746 29.7491 75.0482 29.9939ZM81.2899 27.6379L81.2134 27.9898C81.2134 28.0102 81.2389 28.0816 81.2899 28.2039C81.3511 28.3161 81.3766 28.4232 81.3664 28.5252C81.3664 28.6272 81.193 28.8669 80.8463 29.2443C80.4995 29.6217 80.3261 29.8409 80.3261 29.9021C80.3261 29.9633 80.3363 29.9939 80.3567 29.9939C80.4689 29.9939 81.0808 29.5758 82.1926 28.7394C82.4475 28.5456 82.7229 28.4487 83.0187 28.4487C83.3247 28.4487 83.4777 28.5915 83.4777 28.8771C83.4777 29.3259 83.1768 29.999 82.575 30.8966C82.4832 31.0394 82.4169 31.1362 82.3761 31.1872C82.3455 31.2382 82.3302 31.2892 82.3302 31.3402C82.3302 31.381 82.3455 31.4014 82.3761 31.4014C82.4067 31.4014 82.4679 31.3759 82.5597 31.3249C82.6515 31.2637 83.2941 30.7028 84.4874 29.642C85.6909 28.5711 86.4406 27.9286 86.7363 27.7144C87.0321 27.5002 87.2463 27.3931 87.3789 27.3931C87.5115 27.3931 87.6186 27.4237 87.7002 27.4849C87.792 27.5359 87.8379 27.6124 87.8379 27.7144C87.8379 27.8164 87.6951 27.9592 87.4095 28.1428C87.1239 28.3161 86.5986 28.7292 85.8337 29.382C85.0688 30.0347 84.314 30.6926 83.5695 31.3555C82.8249 32.0185 82.4016 32.3908 82.2996 32.4724C81.6673 33.0027 81.1165 33.2679 80.6474 33.2679C80.3822 33.2679 80.1731 33.1863 80.0201 33.0231C79.8773 32.8701 79.8059 32.6559 79.8059 32.3806C79.8059 32.095 79.9334 31.7482 80.1884 31.3402C80.4434 30.9323 80.5709 30.7079 80.5709 30.6671C80.5709 30.6263 80.5556 30.6059 80.525 30.6059C80.4434 30.6365 80.2547 30.7538 79.9589 30.9578C79.1022 31.5493 78.4749 31.9726 78.0771 32.2276C77.6794 32.4825 77.4142 32.61 77.2816 32.61C77.149 32.61 77.0062 32.5131 76.8532 32.3194C76.7104 32.1256 76.639 31.9573 76.639 31.8145C76.639 31.4371 76.9195 30.8915 77.4805 30.1775C78.0516 29.4636 78.6891 28.821 79.3929 28.2498C80.0966 27.6787 80.627 27.3931 80.9839 27.3931C81.1879 27.4135 81.2899 27.4951 81.2899 27.6379Z" fill="#797777"/>
</svg>
