<svg width="102" height="32" viewBox="0 0 102 32" fill="none" xmlns="http://www.w3.org/2000/svg">
<path fill-rule="evenodd" clip-rule="evenodd" d="M16.9517 15.6184V5.64648H3.26172L5.43499 9.41043H9.78275H13.1865V15.3066V29.1681L16.9517 25.4042V19.3848H24.4808V25.4042L28.2459 29.1573V15.3066V9.41043H31.6497H35.9974L38.1707 5.64648H24.4808V15.6184H16.9517Z" fill="#797777"/>
<path fill-rule="evenodd" clip-rule="evenodd" d="M2.17327 3.76395H18.8318V13.7371H22.597V3.76395H39.2555L41.43 0H0L2.17327 3.76395Z" fill="#797777"/>
<path d="M48.3637 25.4989L46.9481 28.0419C45.3149 27.2168 44.0095 26.55 43.0318 26.0414C44.2864 24.8716 44.9843 24.0493 45.1256 23.5746C45.1482 23.4899 45.1595 23.391 45.1595 23.2779C45.1595 22.7411 44.925 21.9556 44.4559 20.9214C43.9869 19.8872 43.6732 19.178 43.515 18.7937C43.3624 18.4038 43.2861 18.1043 43.2861 17.8952C43.2861 17.6861 43.32 17.5052 43.3878 17.3527C43.5461 17.0023 43.919 16.683 44.5068 16.3948C45.0945 16.1009 45.9874 15.7336 47.1854 15.2928C47.355 15.6884 47.4793 15.9851 47.5584 16.1829C46.8012 16.4315 46.3858 16.7423 46.3123 17.1153C46.2954 17.1944 46.2869 17.2792 46.2869 17.3696C46.2869 17.6917 46.3943 18.0732 46.609 18.514C48.6039 16.5587 49.6946 15.4849 49.8811 15.2928C50.384 15.6262 50.8107 15.9455 51.1611 16.2507C51.5171 16.5502 51.9437 16.8243 52.4411 17.0729L54.1364 15.2928C54.8146 15.6601 55.4955 16.0275 56.1793 16.3948C56.8631 16.7565 57.5752 17.0673 58.3155 17.3272C57.4056 17.9489 56.9253 19.0028 56.8744 20.4891L56.7812 23.6425C56.7812 23.7046 56.7812 23.7668 56.7812 23.8289C56.7812 24.7444 57.1061 25.3011 57.756 25.4989L56.4082 28.0419C55.5888 27.7424 55.0208 27.279 54.7044 26.6517C54.3935 26.0188 54.2381 25.1457 54.2381 24.0324C54.2381 23.9533 54.2381 23.8741 54.2381 23.795L54.2551 21.6589C54.2551 21.1446 54.3483 20.6954 54.5348 20.3111C54.7213 19.9268 54.9643 19.5397 55.2638 19.1497C54.1279 18.319 53.2774 17.8698 52.7123 17.8019C52.4976 18.1241 52.3874 18.5055 52.3817 18.9463C52.3817 19.3871 52.3704 19.9014 52.3478 20.4891L52.2546 23.6425C52.2546 23.7046 52.2546 23.7668 52.2546 23.8289C52.2546 24.8518 52.523 25.4508 53.0599 25.626L51.0763 28.0419C50.7711 27.6576 50.4264 27.2931 50.0421 26.9484C49.6578 26.6037 49.2962 26.2872 48.9571 25.999C49.1266 25.8012 49.2933 25.4904 49.4572 25.0666C49.6211 24.6427 49.7059 24.2189 49.7115 23.795L50.0082 18.5479C49.5166 18.1806 49.1351 17.9969 48.8638 17.9969C48.796 17.9969 48.7339 18.0082 48.6774 18.0308C48.4117 18.1495 47.8721 18.6016 47.0583 19.3871L47.1685 19.5821C47.5923 20.3732 47.8042 21.0288 47.8042 21.5487C47.8042 21.69 47.7873 21.8228 47.7534 21.9471C47.6008 22.5179 47.0639 23.4023 46.1428 24.6003C46.674 24.9846 47.4143 25.2841 48.3637 25.4989ZM68.9284 16.9034L67.4874 18.5818C66.6058 17.9715 65.744 17.607 64.9019 17.4883C64.8511 17.9743 64.8172 18.5281 64.8002 19.1497H68.3011V21.1503H64.8426C64.8596 21.7945 64.9245 22.5433 65.0376 23.3966L63.0879 24.1087C64.156 25.0694 65.6423 25.5497 67.5467 25.5497C67.7615 25.5497 67.9818 25.5441 68.2079 25.5328L66.3515 28.0419C63.9497 27.782 62.1018 26.9343 60.8077 25.4989C59.5192 24.0635 58.8749 21.9471 58.8749 19.1497L65.4529 15.2928C66.2498 15.841 67.4083 16.3778 68.9284 16.9034ZM62.4352 23.4136L63.0625 23.2017C62.8929 21.964 62.8082 20.8931 62.8082 19.989C62.8082 19.0848 62.8223 18.3614 62.8506 17.8189C62.5115 17.9884 62.2346 18.1862 62.0198 18.4123C61.8107 18.6383 61.6582 18.8587 61.5621 19.0735C61.4717 19.2826 61.4265 19.5821 61.4265 19.972C61.4265 20.3563 61.4321 20.6473 61.4434 20.8451C61.483 21.738 61.8136 22.5942 62.4352 23.4136ZM70.8696 24.0493C70.9148 23.5238 70.9374 23.0236 70.9374 22.5489C70.9374 22.0742 70.9176 21.625 70.8781 21.2011C70.799 20.3195 70.5023 19.6244 69.988 19.1158C71.3104 19.0537 72.5791 18.7824 73.7941 18.3021C72.5621 17.6861 71.0872 17.3781 69.3692 17.3781C69.2788 17.3781 69.1884 17.3781 69.098 17.3781L71.8868 15.2928C74.492 15.694 76.4247 16.618 77.685 18.0647C78.9508 19.5114 79.6318 21.4159 79.7279 23.7781L74.735 28.0419C73.1244 27.2281 71.2143 26.5528 69.0047 26.016L70.8696 24.0493ZM74.1925 18.5225C74.0173 18.8446 73.8789 19.1554 73.7772 19.4549C73.6754 19.7488 73.6246 20.0313 73.6246 20.3026C73.6246 20.5739 73.6274 20.9186 73.633 21.3368C73.6443 21.7493 73.6641 22.1392 73.6924 22.5066C73.7206 22.8739 73.8195 23.3062 73.9891 23.8035C73.8704 23.7922 73.7545 23.7866 73.6415 23.7866C73.0708 23.7866 72.5282 23.9024 72.014 24.1341C73.3703 25.1231 74.4242 25.6175 75.1758 25.6175C75.4866 25.6175 75.7466 25.53 75.9557 25.3548C76.5943 24.8179 76.9136 24.0437 76.9136 23.0321C76.9136 22.1336 76.679 21.2916 76.21 20.506C75.7409 19.7149 75.0685 19.0537 74.1925 18.5225ZM88.6878 15.4539C88.1623 16.3807 87.8091 17.0136 87.6282 17.3527C87.7526 18.7711 87.8684 19.9437 87.9758 20.8705C88.0832 21.7973 88.1368 22.4246 88.1368 22.7524C88.1368 23.7074 87.9532 24.4534 87.5859 24.9903C87.0603 25.3576 86.5263 25.8097 85.9837 26.3465C85.4469 26.8834 84.9044 27.4485 84.3562 28.0419C83.3672 27.5785 82.2172 27.0332 80.9061 26.4059C80.4314 26.2137 80.1941 25.8718 80.1941 25.3802C80.1941 25.2502 80.2167 25.0496 80.2619 24.7783C80.3128 24.5014 80.3721 24.1652 80.4399 23.7696C80.5134 23.3684 80.584 22.9671 80.6518 22.5659C81.2678 23.374 81.9262 24.0183 82.6269 24.4986C83.3277 24.9733 84.051 25.3548 84.797 25.643C84.8987 25.6825 85.023 25.7023 85.17 25.7023C85.3226 25.7023 85.4808 25.6034 85.6447 25.4056C85.8142 25.2078 85.899 24.9451 85.899 24.6173C85.899 24.2839 85.8707 23.8685 85.8142 23.3712C85.7633 22.8739 85.6729 22.241 85.5429 21.4724C85.413 20.7038 85.2915 19.9296 85.1784 19.1497C85.6249 18.7937 86.0939 18.3501 86.5856 17.8189C86.2013 17.8584 85.7323 17.8782 85.1784 17.8782C84.6303 17.8782 84.0821 17.8245 83.5339 17.7172C82.9914 17.6041 82.5563 17.5476 82.2285 17.5476C81.5786 17.5476 81.0079 17.6974 80.5162 17.9969C80.7875 16.9514 81.1944 15.9738 81.7369 15.0639C83.3927 15.3352 85.2689 15.4708 87.3655 15.4708C87.795 15.4708 88.2357 15.4652 88.6878 15.4539ZM94.8674 17.9121C94.291 17.7652 93.7315 17.6917 93.189 17.6917C91.8553 17.6917 90.6403 18.1438 89.544 19.048C89.5496 18.9915 89.5299 18.8446 89.4847 18.6072C89.4451 18.3642 89.431 18.2145 89.4423 18.158C90.9285 16.9373 92.5448 15.9823 94.291 15.2928C96.5741 15.9709 98.6735 16.9034 100.589 18.0901C100.465 18.2936 100.31 18.4716 100.123 18.6242C99.9365 18.7768 99.7811 18.952 99.6568 19.1497C99.6173 19.2571 99.5975 19.4097 99.5975 19.6075V20.0652L99.6568 24.6088C99.6738 24.9761 99.7416 25.205 99.8603 25.2954L100.716 25.999L99.2245 28.0419L97.2833 26.3974C97.4076 25.5102 97.4698 24.3489 97.4698 22.9134H94.2995C94.0847 24.914 93.4716 26.6093 92.46 27.9995C91.4541 29.3897 90.5471 30.4776 89.739 31.2631C89.5016 31.0936 89.2869 30.9523 89.0947 30.8393C89.7503 30.1555 90.2391 29.3728 90.5612 28.4912C90.889 27.6096 91.1687 26.68 91.4004 25.7023C91.6321 24.719 91.748 23.7583 91.748 22.8202C91.748 21.8765 91.5417 20.992 91.1292 20.167C92.5024 19.4832 93.7485 18.7316 94.8674 17.9121ZM97.4359 20.9214C97.4246 20.2489 97.4189 19.8364 97.4189 19.6838C97.4189 19.5256 97.4218 19.3475 97.4274 19.1497C96.8679 18.7542 96.2802 18.4292 95.6642 18.1749C95.263 18.4744 94.9578 18.8192 94.7487 19.2091C94.5397 19.5934 94.4153 20.1641 94.3758 20.9214H97.4359Z" fill="#797777"/>
<path d="M65.3663 10.4551V4.00421H67.6752C68.428 4.00421 69.0002 4.18312 69.3917 4.54094C69.7867 4.89539 69.9842 5.36291 69.9842 5.94352C69.9842 6.51738 69.7867 6.98154 69.3917 7.33598C69.0002 7.69042 68.428 7.86764 67.6752 7.86764H66.3283V10.4551H65.3663ZM68.9259 10.4551L67.1385 7.48788H68.1765L70.1766 10.4551H68.9259ZM66.3283 7.20939H67.5891C68.0482 7.20939 68.3976 7.09968 68.6373 6.88027C68.877 6.65747 68.9968 6.37054 68.9968 6.01948C68.9968 5.65828 68.8837 5.37135 68.6575 5.15869C68.4347 4.94264 68.1073 4.83462 67.6752 4.83462H66.3283V7.20939ZM75.1791 10.5867C74.6288 10.5867 74.1394 10.4618 73.7107 10.212C73.2819 9.96223 72.9444 9.58923 72.698 9.093C72.4549 8.59678 72.3334 7.97735 72.3334 7.23471C72.3334 6.47856 72.4549 5.85407 72.698 5.36122C72.9444 4.865 73.2819 4.49537 73.7107 4.25232C74.1394 4.00928 74.6288 3.88775 75.1791 3.88775C75.7327 3.88775 76.2238 4.01097 76.6525 4.25739C77.0846 4.50381 77.4222 4.87682 77.6652 5.37642C77.9116 5.87264 78.0349 6.49207 78.0349 7.23471C78.0349 7.9841 77.9116 8.6086 77.6652 9.1082C77.4222 9.60442 77.0846 9.97574 76.6525 10.2222C76.2238 10.4652 75.7327 10.5867 75.1791 10.5867ZM75.1791 9.70569C75.7529 9.70569 76.2053 9.49471 76.5361 9.07275C76.8703 8.65079 77.0374 8.03474 77.0374 7.22458C77.0374 6.43468 76.8703 5.82538 76.5361 5.39667C76.2053 4.96459 75.7529 4.74854 75.1791 4.74854C74.6153 4.74854 74.1664 4.96459 73.8322 5.39667C73.498 5.82875 73.3309 6.44143 73.3309 7.23471C73.3309 8.03811 73.498 8.65079 73.8322 9.07275C74.1664 9.49471 74.6153 9.70569 75.1791 9.70569ZM82.9883 10.5867C82.438 10.5867 81.9486 10.4618 81.5199 10.212C81.0912 9.96223 80.7536 9.58923 80.5072 9.093C80.2641 8.59678 80.1426 7.97735 80.1426 7.23471C80.1426 6.47856 80.2641 5.85407 80.5072 5.36122C80.7536 4.865 81.0912 4.49537 81.5199 4.25232C81.9486 4.00928 82.438 3.88775 82.9883 3.88775C83.5419 3.88775 84.033 4.01097 84.4617 4.25739C84.8938 4.50381 85.2314 4.87682 85.4744 5.37642C85.7209 5.87264 85.8441 6.49207 85.8441 7.23471C85.8441 7.9841 85.7209 8.6086 85.4744 9.1082C85.2314 9.60442 84.8938 9.97574 84.4617 10.2222C84.033 10.4652 83.5419 10.5867 82.9883 10.5867ZM82.9883 9.70569C83.5621 9.70569 84.0145 9.49471 84.3453 9.07275C84.6795 8.65079 84.8466 8.03474 84.8466 7.22458C84.8466 6.43468 84.6795 5.82538 84.3453 5.39667C84.0145 4.96459 83.5621 4.74854 82.9883 4.74854C82.4245 4.74854 81.9756 4.96459 81.6414 5.39667C81.3072 5.82875 81.1401 6.44143 81.1401 7.23471C81.1401 8.03811 81.3072 8.65079 81.6414 9.07275C81.9756 9.49471 82.4245 9.70569 82.9883 9.70569ZM87.5113 4.83462V4.00421H92.595V4.83462H90.3165L90.5342 4.61183V10.4551H89.5721V4.61183L89.7848 4.83462H87.5113Z" fill="#797777"/>
</svg>
