<svg width="82" height="58" viewBox="0 0 82 58" fill="none" xmlns="http://www.w3.org/2000/svg">
<path fill-rule="evenodd" clip-rule="evenodd" d="M25.0977 34.1692C34.2639 34.1692 43.4297 34.1692 52.5951 34.1692L54.7056 30.5123H43.8332L50.0364 19.771L47.9259 16.1195L39.6134 30.5164H31.428L46.9341 3.66101L44.8249 0L25.0977 34.1679V34.1692ZM51.1566 28.7952H46.9355L52.0814 19.8816L47.9833 12.7945L38.7446 28.7965H34.5248L47.9833 5.48338L56.2957 19.8816C54.5845 22.8542 52.8715 25.8258 51.1566 28.7965V28.7952Z" fill="#797777"/>
<path d="M3.94261 45.7251C4.59059 45.7251 5.18381 45.8118 5.72227 45.9852C6.26073 46.1586 6.72161 46.4188 7.10492 46.7656C7.49736 47.1124 7.79853 47.5459 8.00844 48.0661C8.22747 48.5771 8.33699 49.1749 8.33699 49.8594C8.33699 50.6534 8.20922 51.3379 7.95368 51.9129C7.69814 52.4787 7.35133 52.9441 6.91326 53.3092C6.4752 53.6651 5.96412 53.9298 5.38003 54.1032C4.80506 54.2675 4.18903 54.3496 3.53193 54.3496H0.999343V45.7251H3.94261ZM2.66948 53.0354H3.40872C3.81028 53.0354 4.19815 52.9898 4.57234 52.8985C4.95565 52.7981 5.29332 52.6293 5.58537 52.392C5.87742 52.1547 6.11014 51.8307 6.28354 51.42C6.46607 51.0093 6.55733 50.4891 6.55733 49.8594C6.55733 48.9468 6.29723 48.2486 5.77703 47.7649C5.26595 47.2812 4.57234 47.0393 3.6962 47.0393H2.66948V53.0354ZM9.90295 45.7251H15.3788V47.0393H11.5731V49.216H15.0229V50.5165H11.5731V53.0354H15.4199V54.3496H9.90295V45.7251ZM18.9069 50.982H21.3026L20.8508 49.7088C20.723 49.3255 20.5998 48.965 20.4812 48.6273C20.3717 48.2897 20.2576 47.92 20.1389 47.5185H20.1116C19.9838 47.8927 19.8606 48.2577 19.7419 48.6137C19.6233 48.9605 19.4955 49.3255 19.3586 49.7088L18.9069 50.982ZM19.3176 45.7251H20.9877L24.2595 54.3496H22.4936L21.7269 52.2277H18.5099L17.7433 54.3496H16.0047L19.3176 45.7251ZM25.3706 45.7251H26.8765L30.162 50.5713C30.3445 50.8451 30.5134 51.1189 30.6685 51.3927C30.8237 51.6573 30.9469 51.8764 31.0381 52.0498H31.0655C31.0108 51.42 30.9834 50.7903 30.9834 50.1606C30.9834 49.5217 30.9834 48.8874 30.9834 48.2577V45.7251H32.5577V54.3496H31.0518L27.9169 49.7636C27.707 49.4533 27.5062 49.1293 27.3146 48.7916C27.132 48.4539 26.9906 48.1801 26.8902 47.9702H26.8628C26.9084 48.6456 26.9312 49.3027 26.9312 49.9415C26.9404 50.5713 26.9449 51.2147 26.9449 51.8718V54.3496H25.3706V45.7251ZM43.4743 45.7251V47.0667H40.9417V54.3496H39.2716V47.0667H36.8075V45.7251H43.4743ZM45.845 50.982H48.2407L47.7889 49.7088C47.6611 49.3255 47.5379 48.965 47.4193 48.6273C47.3098 48.2897 47.1957 47.92 47.077 47.5185H47.0497C46.9219 47.8927 46.7987 48.2577 46.68 48.6137C46.5614 48.9605 46.4336 49.3255 46.2967 49.7088L45.845 50.982ZM46.2557 45.7251H47.9258L51.1976 54.3496H49.4317L48.665 52.2277H45.448L44.6814 54.3496H42.9428L46.2557 45.7251ZM55.252 45.7251C55.9 45.7251 56.4932 45.8118 57.0316 45.9852C57.5701 46.1586 58.031 46.4188 58.4143 46.7656C58.8067 47.1124 59.1079 47.5459 59.3178 48.0661C59.5369 48.5771 59.6464 49.1749 59.6464 49.8594C59.6464 50.6534 59.5186 51.3379 59.2631 51.9129C59.0075 52.4787 58.6607 52.9441 58.2226 53.3092C57.7846 53.6651 57.2735 53.9298 56.6894 54.1032C56.1144 54.2675 55.4984 54.3496 54.8413 54.3496H52.3087V45.7251H55.252ZM53.9789 53.0354H54.7181C55.1197 53.0354 55.5075 52.9898 55.8817 52.8985C56.265 52.7981 56.6027 52.6293 56.8948 52.392C57.1868 52.1547 57.4195 51.8307 57.5929 51.42C57.7755 51.0093 57.8667 50.4891 57.8667 49.8594C57.8667 48.9468 57.6066 48.2486 57.0864 47.7649C56.5753 47.2812 55.8817 47.0393 55.0056 47.0393H53.9789V53.0354ZM61.0786 45.7251H62.5845L65.87 50.5713C66.0525 50.8451 66.2214 51.1189 66.3765 51.3927C66.5317 51.6573 66.6549 51.8764 66.7462 52.0498H66.7735C66.7188 51.42 66.6914 50.7903 66.6914 50.1606C66.6914 49.5217 66.6914 48.8874 66.6914 48.2577V45.7251H68.2657V54.3496H66.7598L63.6249 49.7636C63.415 49.4533 63.2142 49.1293 63.0226 48.7916C62.84 48.4539 62.6986 48.1801 62.5982 47.9702H62.5708C62.6164 48.6456 62.6393 49.3027 62.6393 49.9415C62.6484 50.5713 62.653 51.2147 62.653 51.8718V54.3496H61.0786V45.7251ZM72.2617 50.982H74.6574L74.2056 49.7088C74.0778 49.3255 73.9546 48.965 73.836 48.6273C73.7265 48.2897 73.6124 47.92 73.4938 47.5185H73.4664C73.3386 47.8927 73.2154 48.2577 73.0968 48.6137C72.9781 48.9605 72.8503 49.3255 72.7134 49.7088L72.2617 50.982ZM72.6724 45.7251H74.3425L77.6143 54.3496H75.8484L75.0818 52.2277H71.8647L71.0981 54.3496H69.3595L72.6724 45.7251ZM80.3956 45.7251V54.3496H78.7254V45.7251H80.3956Z" fill="#797777"/>
</svg>
