<svg width="98" height="38" viewBox="0 0 98 38" fill="none" xmlns="http://www.w3.org/2000/svg">
<path fill-rule="evenodd" clip-rule="evenodd" d="M5.61017 6.32906H27.3319L34.5365 18.8079L27.3319 31.2868H9.12887L5.48097 37.6159H30.9798L41.8399 18.8065L30.9798 0H9.26415L5.61017 6.32906ZM8.1941 26.5735H26.0582L22.4103 20.2458H11.8511L14.4047 15.8212H29.1483L25.5004 9.49366H10.7568L0 28.1238L3.6479 34.4529L8.1941 26.5735Z" fill="#797777"/>
<path d="M49.5941 24.3172V12.4385H56.5111V24.3172H49.5941ZM54.5348 22.0781H56.2798V20.8797H55.4599L54.5348 19.1768C54.9273 19.0226 55.2426 18.7913 55.4809 18.483C55.7192 18.1676 55.8383 17.7787 55.8383 17.3161C55.8383 16.6293 55.6105 16.1142 55.155 15.7708C54.6995 15.4204 54.0477 15.2452 53.1998 15.2452H50.1092V16.4436H50.845V20.8797H50.1092V22.0781H52.9895V20.8797H52.2537V19.4711H53.1787L54.5348 22.0781ZM54.3246 17.3477C54.3246 17.67 54.2264 17.9188 54.0302 18.094C53.834 18.2692 53.4661 18.3568 52.9264 18.3568H52.2537V16.4436H52.9475C53.4591 16.4436 53.8165 16.5102 54.0197 16.6433C54.2229 16.7695 54.3246 17.0043 54.3246 17.3477ZM56.2976 24.3172V12.4385H63.9925V24.3172H56.2976ZM63.6351 18.6512C63.6351 17.6911 63.3268 16.8676 62.71 16.1808C62.1003 15.487 61.2489 15.1401 60.1556 15.1401C59.0834 15.1401 58.2319 15.48 57.6011 16.1598C56.9704 16.8396 56.6551 17.677 56.6551 18.6722C56.6551 19.6253 56.9529 20.4487 57.5486 21.1425C58.1443 21.8363 58.9993 22.1832 60.1135 22.1832C61.2208 22.1832 62.0828 21.8363 62.6995 21.1425C63.3233 20.4487 63.6351 19.6183 63.6351 18.6512ZM62.1109 18.6932C62.1109 19.359 61.9567 19.9021 61.6483 20.3226C61.34 20.7361 60.8529 20.9428 60.1871 20.9428C59.4653 20.9428 58.9502 20.7151 58.6418 20.2595C58.3335 19.804 58.1793 19.2644 58.1793 18.6407C58.1793 17.9959 58.337 17.4598 58.6524 17.0323C58.9677 16.5978 59.4653 16.3805 60.1451 16.3805C60.7828 16.3805 61.2699 16.5838 61.6063 16.9902C61.9427 17.3967 62.1109 17.9644 62.1109 18.6932ZM63.7814 24.3172V12.4385H71.4763V24.3172H63.7814ZM71.1189 18.6512C71.1189 17.6911 70.8105 16.8676 70.1938 16.1808C69.5841 15.487 68.7326 15.1401 67.6393 15.1401C66.5671 15.1401 65.7156 15.48 65.0849 16.1598C64.4542 16.8396 64.1388 17.677 64.1388 18.6722C64.1388 19.6253 64.4366 20.4487 65.0323 21.1425C65.628 21.8363 66.483 22.1832 67.5973 22.1832C68.7046 22.1832 69.5666 21.8363 70.1833 21.1425C70.807 20.4487 71.1189 19.6183 71.1189 18.6512ZM69.5946 18.6932C69.5946 19.359 69.4404 19.9021 69.1321 20.3226C68.8237 20.7361 68.3366 20.9428 67.6709 20.9428C66.949 20.9428 66.4339 20.7151 66.1256 20.2595C65.8172 19.804 65.6631 19.2644 65.6631 18.6407C65.6631 17.9959 65.8207 17.4598 66.1361 17.0323C66.4515 16.5978 66.949 16.3805 67.6288 16.3805C68.2666 16.3805 68.7536 16.5838 69.09 16.9902C69.4264 17.3967 69.5946 17.9644 69.5946 18.6932ZM71.2651 24.3172V12.4385H78.3293V24.3172H71.2651ZM76.784 17.663L77.9824 17.5579L77.7721 15.2452H71.8012L71.591 17.5579L72.7894 17.663L72.9996 16.4436H74.0824V20.8797H73.0312V22.0781H76.6053V20.8797H75.491V16.4436H76.5738L76.784 17.663ZM78.0701 24.3172V12.4385H80.2566V24.3172H78.0701ZM79.991 24.3172V12.4385H86.498V24.3172H79.991ZM86.2352 17.4738C86.2352 16.787 86.0145 16.2439 85.573 15.8444C85.1315 15.445 84.4867 15.2452 83.6387 15.2452H80.5061V16.4436H81.242V20.8797H80.5061V22.0781H83.7018V20.8797H82.6506V19.7865H83.7018C84.3746 19.7865 84.9633 19.5973 85.4679 19.2188C85.9794 18.8334 86.2352 18.2517 86.2352 17.4738ZM84.7215 17.4948C84.7215 17.8242 84.6269 18.0905 84.4377 18.2938C84.2555 18.497 83.9226 18.5986 83.439 18.5986H82.6506V16.4436H83.46C83.9296 16.4436 84.2555 16.5347 84.4377 16.7169C84.6269 16.8991 84.7215 17.1584 84.7215 17.4948ZM86.2839 12.4385H93.3691V20.8797H92.7174L90.2575 15.2452H87.9133V16.4436H88.8594L86.9042 20.8797H86.2839V12.4385ZM89.8476 17.2531L90.5624 19.1768H89.0171L89.7845 17.2531H89.8476ZM93.3691 24.3172H86.2839V22.0781H88.975V20.8797H88.3338L88.6176 20.1859H90.9408L91.1931 20.8797H90.6465V22.0781H93.3691V24.3172ZM93.162 24.3172V12.4385H97.083V24.3172H93.162ZM93.6771 22.0781H96.5574V20.8797H95.8216V16.4436H96.5574V15.2452H93.6771V16.4436H94.4129V20.8797H93.6771V22.0781Z" fill="#797777"/>
</svg>
