<svg width="29" height="26" viewBox="0 0 29 26" fill="none" xmlns="http://www.w3.org/2000/svg">
<path d="M22.1654 24.8346C22.1654 22.0057 21.0416 19.2926 19.0412 17.2922C17.0408 15.2918 14.3277 14.168 11.4987 14.168C8.66972 14.168 5.95661 15.2918 3.95623 17.2922C1.95584 19.2926 0.832031 22.0057 0.832031 24.8346" stroke="#FF0000" stroke-width="1.66667" stroke-linecap="round" stroke-linejoin="round"/>
<path d="M11.4987 14.1673C15.1806 14.1673 18.1654 11.1825 18.1654 7.50065C18.1654 3.81875 15.1806 0.833984 11.4987 0.833984C7.8168 0.833984 4.83203 3.81875 4.83203 7.50065C4.83203 11.1825 7.8168 14.1673 11.4987 14.1673Z" stroke="#FF0000" stroke-width="1.66667" stroke-linecap="round" stroke-linejoin="round"/>
<path d="M27.4958 23.5009C27.4958 19.0076 24.8292 14.8342 22.1625 12.8342C23.0391 12.1766 23.74 11.313 24.2033 10.3199C24.6665 9.32685 24.8779 8.23487 24.8185 7.14065C24.7592 6.04642 24.4311 4.98369 23.8631 4.04651C23.2952 3.10933 22.505 2.32659 21.5625 1.76758" stroke="#FF0000" stroke-width="1.66667" stroke-linecap="round" stroke-linejoin="round"/>
</svg>
