<svg width="82" height="41" viewBox="0 0 82 41" fill="none" xmlns="http://www.w3.org/2000/svg">
<path fill-rule="evenodd" clip-rule="evenodd" d="M10.5681 5.33381V18.6808L6.98277 15.1016C5.91326 14.0213 5.31332 12.5625 5.31332 11.0423C5.31332 9.52211 5.91326 8.06335 6.98277 6.98301C7.94348 6.02408 9.21477 5.4393 10.5681 5.33381ZM27.1275 9.84257L15.8823 21.0878V1.10574C14.2285 0.307506 12.4027 -0.0688359 10.5681 0.0103448C7.80235 0.123767 5.1806 1.27389 3.22415 3.23202C1.15909 5.3096 0 8.11991 0 11.0492C0 13.9785 1.15909 16.7888 3.22415 18.8664L9.32079 24.9615L10.5681 26.2103V28.3397C10.4996 29.7552 9.90743 31.0948 8.90658 32.0983C8.05937 32.9351 6.97457 33.4901 5.80026 33.6875C4.62595 33.8849 3.41934 33.7151 2.34509 33.2013V38.7947C4.17303 39.2173 6.07834 39.1687 7.88235 38.6535C9.68637 38.1383 11.33 37.1734 12.6591 35.8492C14.5938 33.9134 15.7385 31.3265 15.87 28.5928L17.4363 30.1591L24.9536 37.6764H32.4708L21.198 26.4021L15.8807 21.0878L23.3688 21.1154L34.6416 9.84257H27.1275Z" fill="#797777"/>
<path d="M40.1904 36.1309V24.7055H41.831V36.1309H40.1904ZM43.369 31.9709L46.196 36.1309H44.2918L42.285 32.9083L43.369 31.9709ZM41.3329 34.2706L41.1718 32.6886L44.9363 29.7883L45.9324 30.6672L41.3329 34.2706ZM50.5304 36.292C49.798 36.292 49.1731 36.1504 48.6555 35.8672C48.1379 35.584 47.7425 35.1934 47.469 34.6954C47.1956 34.1876 47.0589 33.6163 47.0589 32.9816C47.0589 32.3566 47.2151 31.7951 47.5276 31.2971C47.8401 30.799 48.26 30.4035 48.7873 30.1106C49.3244 29.8078 49.9152 29.6565 50.5597 29.6565C51.4093 29.6565 52.1075 29.9055 52.6544 30.4035C53.211 30.8918 53.5821 31.5851 53.7676 32.4835L48.7727 34.168L48.3918 33.2452L52.2882 31.8537L51.9513 32.0441C51.8439 31.7511 51.6681 31.4972 51.424 31.2824C51.1896 31.0676 50.8576 30.9601 50.4279 30.9601C50.0861 30.9601 49.7834 31.0432 49.5197 31.2092C49.2561 31.3654 49.0461 31.59 48.8899 31.883C48.7434 32.1662 48.6702 32.5031 48.6702 32.8937C48.6702 33.294 48.7532 33.6456 48.9192 33.9483C49.0852 34.251 49.3098 34.4854 49.593 34.6514C49.8762 34.8077 50.1984 34.8858 50.5597 34.8858C50.8136 34.8858 51.0578 34.8418 51.2921 34.754C51.5265 34.6661 51.7462 34.5489 51.9513 34.4024L52.6983 35.6182C52.3761 35.8233 52.0196 35.9893 51.629 36.1162C51.2482 36.2334 50.882 36.292 50.5304 36.292ZM56.8613 29.9348L57.0078 31.6925L56.9492 31.4435C57.125 31.0725 57.3642 30.7551 57.6669 30.4914C57.9794 30.218 58.2968 30.0129 58.6191 29.8762C58.9413 29.7297 59.205 29.6565 59.41 29.6565L59.3368 31.2971C58.8681 31.258 58.4579 31.3459 58.1064 31.5607C57.7646 31.7658 57.4961 32.0392 57.3007 32.381C57.1152 32.7228 57.0224 33.0841 57.0224 33.4649V36.1309H55.3819V29.9348H56.8613ZM63.5251 36.292C62.9392 36.292 62.407 36.1699 61.9285 35.9258C61.4597 35.6817 61.0886 35.3203 60.8152 34.8418C60.5418 34.3536 60.4051 33.753 60.4051 33.0402C60.4051 32.3371 60.5467 31.7365 60.8299 31.2385C61.1228 30.7307 61.5037 30.3401 61.9724 30.0666C62.4509 29.7932 62.9685 29.6565 63.5251 29.6565C64.1208 29.6565 64.5993 29.7737 64.9606 30.008C65.3316 30.2424 65.6197 30.5207 65.8248 30.843L65.7369 31.0773L65.898 29.9348H67.4068V36.1309H65.7662V34.6221L65.9273 35.0176C65.8883 35.0762 65.8101 35.1739 65.693 35.3106C65.5758 35.4375 65.4147 35.5791 65.2096 35.7354C65.0045 35.8916 64.7604 36.0234 64.4772 36.1309C64.2038 36.2383 63.8864 36.292 63.5251 36.292ZM63.9792 34.9444C64.2721 34.9444 64.5358 34.8907 64.7701 34.7833C65.0143 34.6758 65.2193 34.5245 65.3854 34.3292C65.5611 34.1339 65.6881 33.8995 65.7662 33.6261V32.2785C65.6881 32.0246 65.5611 31.8048 65.3854 31.6193C65.2096 31.424 64.9947 31.2726 64.7409 31.1652C64.4967 31.0578 64.2233 31.0041 63.9206 31.0041C63.5885 31.0041 63.2809 31.0871 62.9977 31.2531C62.7146 31.4191 62.4851 31.6486 62.3093 31.9416C62.1433 32.2345 62.0603 32.5714 62.0603 32.9523C62.0603 33.3233 62.1482 33.6602 62.3239 33.963C62.4997 34.2657 62.7341 34.5049 63.027 34.6807C63.32 34.8565 63.6374 34.9444 63.9792 34.9444ZM69.6722 24.7055H71.3127V36.1309H69.6722V24.7055ZM76.1703 36.292C75.5844 36.292 75.0522 36.1699 74.5737 35.9258C74.105 35.6817 73.7339 35.3203 73.4605 34.8418C73.187 34.3536 73.0503 33.753 73.0503 33.0402C73.0503 32.3371 73.1919 31.7365 73.4751 31.2385C73.7681 30.7307 74.1489 30.3401 74.6177 30.0666C75.0962 29.7932 75.6137 29.6565 76.1703 29.6565C76.766 29.6565 77.2445 29.7737 77.6058 30.008C77.9769 30.2424 78.265 30.5207 78.4701 30.843L78.3822 31.0773L78.5433 29.9348H80.052V36.1309H78.4115V34.6221L78.5726 35.0176C78.5335 35.0762 78.4554 35.1739 78.3382 35.3106C78.221 35.4375 78.0599 35.5791 77.8548 35.7354C77.6498 35.8916 77.4056 36.0234 77.1224 36.1309C76.849 36.2383 76.5317 36.292 76.1703 36.292ZM76.6244 34.9444C76.9174 34.9444 77.181 34.8907 77.4154 34.7833C77.6595 34.6758 77.8646 34.5245 78.0306 34.3292C78.2064 34.1339 78.3333 33.8995 78.4115 33.6261V32.2785C78.3333 32.0246 78.2064 31.8048 78.0306 31.6193C77.8548 31.424 77.64 31.2726 77.3861 31.1652C77.142 31.0578 76.8686 31.0041 76.5658 31.0041C76.2338 31.0041 75.9262 31.0871 75.643 31.2531C75.3598 31.4191 75.1303 31.6486 74.9546 31.9416C74.7885 32.2345 74.7055 32.5714 74.7055 32.9523C74.7055 33.3233 74.7934 33.6602 74.9692 33.963C75.145 34.2657 75.3793 34.5049 75.6723 34.6807C75.9653 34.8565 76.2826 34.9444 76.6244 34.9444Z" fill="#797777"/>
</svg>
