<svg width="29" height="26" viewBox="0 0 29 26" fill="none" xmlns="http://www.w3.org/2000/svg">
<path d="M16.8464 22.1667V6.16667C16.8464 5.45942 16.5654 4.78115 16.0653 4.28105C15.5652 3.78095 14.8869 3.5 14.1797 3.5H10.1797" stroke="#FF0000" stroke-width="1.66667" stroke-linecap="round" stroke-linejoin="round"/>
<path d="M18.1797 22.168H10.1797" stroke="#FF0000" stroke-width="1.66667" stroke-linecap="round" stroke-linejoin="round"/>
<path d="M23.5143 22.1673H26.181C26.5346 22.1673 26.8738 22.0268 27.1238 21.7768C27.3738 21.5267 27.5143 21.1876 27.5143 20.834V15.9673C27.5126 15.6666 27.4092 15.3752 27.221 15.1407L22.581 9.34065C22.4568 9.18351 22.2988 9.05637 22.1188 8.96865C21.9388 8.88094 21.7413 8.83491 21.541 8.83398H16.8477" stroke="#FF0000" stroke-width="1.66667" stroke-linecap="round" stroke-linejoin="round"/>
<path d="M0.847656 14.168V20.8346C0.847656 21.1883 0.988132 21.5274 1.23818 21.7774C1.48823 22.0275 1.82737 22.168 2.18099 22.168H4.84766" stroke="#FF0000" stroke-width="1.66667" stroke-linecap="round" stroke-linejoin="round"/>
<path d="M3.51325 0.833984L1.04658 3.70065C0.94708 3.79166 0.877841 3.91097 0.848187 4.04252C0.818533 4.17407 0.829886 4.31155 0.880719 4.43645C0.931551 4.56135 1.01942 4.66769 1.13251 4.74114C1.2456 4.8146 1.37847 4.85165 1.51325 4.84732H4.37992C4.52525 4.81331 4.67795 4.83229 4.81054 4.90084C4.94312 4.9694 5.04688 5.08302 5.10315 5.22127C5.15941 5.35952 5.16448 5.51332 5.11745 5.65497C5.07042 5.79663 4.97436 5.91684 4.84658 5.99398L2.17992 8.86065" stroke="#FF0000" stroke-width="1.66667" stroke-linecap="round" stroke-linejoin="round"/>
<path d="M20.8464 24.8333C22.3191 24.8333 23.513 23.6394 23.513 22.1667C23.513 20.6939 22.3191 19.5 20.8464 19.5C19.3736 19.5 18.1797 20.6939 18.1797 22.1667C18.1797 23.6394 19.3736 24.8333 20.8464 24.8333Z" stroke="#FF0000" stroke-width="1.66667" stroke-linecap="round" stroke-linejoin="round"/>
<path d="M7.51432 24.8333C8.98708 24.8333 10.181 23.6394 10.181 22.1667C10.181 20.6939 8.98708 19.5 7.51432 19.5C6.04156 19.5 4.84766 20.6939 4.84766 22.1667C4.84766 23.6394 6.04156 24.8333 7.51432 24.8333Z" stroke="#FF0000" stroke-width="1.66667" stroke-linecap="round" stroke-linejoin="round"/>
</svg>
