<svg width="16" height="16" viewBox="0 0 16 16" fill="none" xmlns="http://www.w3.org/2000/svg">
<g clip-path="url(#clip0_1940_4572)">
<path d="M7.39261 10.5819C6.98448 12.7851 6.48712 14.8971 5.01211 16.0003C4.55742 12.6707 5.68017 10.1707 6.20236 7.51634C5.31238 5.97234 6.30943 2.86674 8.18481 3.63234C10.4932 4.57314 6.18606 9.36994 9.07712 9.96994C12.0962 10.5947 13.3283 4.56994 11.4561 2.61074C8.75201 -0.219658 3.58365 2.54434 4.2199 6.59634C4.37431 7.58674 5.3667 7.88674 4.61639 9.25394C2.88533 8.85874 2.36857 7.45074 2.4353 5.57394C2.54237 2.50194 5.11142 0.352342 7.68901 0.0539423C10.9486 -0.322858 14.008 1.28834 14.4309 4.44914C14.9066 8.01794 12.9598 11.8835 9.47361 11.6051C8.52854 11.5291 8.13283 11.0459 7.39261 10.5819V10.5819Z" fill="black" fill-opacity="0.8"/>
</g>
<defs>
<clipPath id="clip0_1940_4572">
<rect width="16" height="16" fill="white"/>
</clipPath>
</defs>
</svg>
