<svg width="15" height="12" viewBox="0 0 15 12" fill="none" xmlns="http://www.w3.org/2000/svg">
<path d="M14.3925 1.41573C13.8526 1.65497 13.2726 1.81662 12.6629 1.88968C13.292 1.51323 13.7627 0.92074 13.9871 0.222764C13.396 0.573858 12.7491 0.82099 12.0745 0.953415C11.6208 0.469029 11.0199 0.14797 10.3651 0.0400839C9.71025 -0.0678017 9.03812 0.0435222 8.45305 0.356772C7.86797 0.670022 7.40268 1.16767 7.12941 1.77246C6.85615 2.37725 6.7902 3.05533 6.9418 3.70144C5.74411 3.64131 4.57244 3.33 3.50284 2.78774C2.43324 2.24548 1.48962 1.48437 0.733203 0.55382C0.474565 0.99997 0.325849 1.51725 0.325849 2.06814C0.32556 2.56408 0.447688 3.05242 0.681397 3.48983C0.915106 3.92725 1.25317 4.30021 1.66559 4.57564C1.18729 4.56042 0.719543 4.43118 0.301278 4.19867V4.23747C0.30123 4.93304 0.541832 5.6072 0.98226 6.14557C1.42269 6.68393 2.03581 7.05334 2.7176 7.19111C2.2739 7.31119 1.80871 7.32888 1.35717 7.24284C1.54953 7.84133 1.92423 8.3647 2.42881 8.73966C2.93339 9.11462 3.5426 9.3224 4.17115 9.33393C3.10416 10.1715 1.78643 10.6259 0.42995 10.6239C0.189664 10.6239 -0.0504199 10.6099 -0.289062 10.5819C1.08784 11.4672 2.69066 11.937 4.32762 11.9352C9.86893 11.9352 12.8982 7.34565 12.8982 3.36521C12.8982 3.23589 12.895 3.10528 12.8892 2.97596C13.4784 2.54984 13.987 2.02217 14.3912 1.41767L14.3925 1.41573Z" fill="black" fill-opacity="0.8"/>
</svg>
