<svg width="16" height="16" viewBox="0 0 16 16" fill="none" xmlns="http://www.w3.org/2000/svg">
<path fill-rule="evenodd" clip-rule="evenodd" d="M6.28665 5.97901H8.76265V7.21234C9.11932 6.50301 10.034 5.86567 11.408 5.86567C14.042 5.86567 14.6673 7.27767 14.6673 9.86834V14.6663H12.0007V10.4583C12.0007 8.98301 11.644 8.15101 10.736 8.15101C9.47665 8.15101 8.95332 9.04767 8.95332 10.4577V14.6663H6.28665V5.97901ZM1.71398 14.553H4.38065V5.86567H1.71398V14.553ZM4.76265 3.03301C4.76275 3.25652 4.71842 3.47783 4.63224 3.68407C4.54606 3.8903 4.41975 4.07735 4.26065 4.23434C3.93825 4.55476 3.50186 4.73411 3.04732 4.73301C2.59358 4.7327 2.15819 4.55381 1.83532 4.23501C1.67679 4.07748 1.55091 3.89022 1.46488 3.68396C1.37885 3.4777 1.33437 3.25649 1.33398 3.03301C1.33398 2.58167 1.51398 2.14967 1.83598 1.83101C2.15857 1.51178 2.59414 1.33281 3.04798 1.33301C3.50265 1.33301 3.93865 1.51234 4.26065 1.83101C4.58198 2.14967 4.76265 2.58167 4.76265 3.03301Z" fill="#111111"/>
</svg>
